<?xml version="1.0" encoding="UTF-8"?>
<svg id="Calque_1" data-name="Calque 1" xmlns="http://www.w3.org/2000/svg" xmlns:xlink="http://www.w3.org/1999/xlink" viewBox="0 0 744.52 1052.96">
  <defs>
    <style>
      .cls-1 {
        clip-path: url(#clippath-1);
      }

      .cls-2 {
        fill: #1d1d1b;
      }

      .cls-2, .cls-3 {
        fill-rule: evenodd;
      }

      .cls-3 {
        fill: #d9252a;
      }

      .cls-4 {
        clip-path: url(#clippath);
      }

      .cls-5 {
        fill: none;
      }

      .cls-6 {
        fill: url(#linear-gradient);
      }
    </style>
    <clipPath id="clippath">
      <path class="cls-5" d="M175.86,243.19c-4.12,.56-3.84,5.35-3.53,10.15,5.09,90.01-11.92,167.18-31.82,233.43-7.12,23.7-19.9,51.24-21.21,71.04-3.77,57.39,35.91,118.14,67.16,152.25,47.95,52.32,118.85,82.47,183.82,111.64,55.39-20.32,106.4-38.74,152-74.43,52.4-41,113.24-113.91,106.05-192.83-3.88-42.55-29.75-89.7-38.89-142.09-9.31-53.43-16.95-107.36-14.13-169.15-115.76,23.18-283.74,23.54-399.45,0"/>
    </clipPath>
    <linearGradient id="linear-gradient" x1="75.45" y1="938.55" x2="76.7" y2="938.55" gradientTransform="translate(-30638.79 383146.41) scale(407.67 -407.66)" gradientUnits="userSpaceOnUse">
      <stop offset="0" stop-color="#ffed00"/>
      <stop offset="1" stop-color="#fdf28d"/>
    </linearGradient>
    <clipPath id="clippath-1">
      <rect class="cls-5" width="744.52" height="1052.96"/>
    </clipPath>
  </defs>
  <g class="cls-4">
    <rect class="cls-6" x="115.53" y="243.19" width="520" height="578.5"/>
  </g>
  <g class="cls-1">
    <path class="cls-2" d="M126.38,192.44c129.95,36.02,356.43,46.16,494.9-3.38-7.19,72.11-7.06,153.58,7.07,226.67,11.28,58.36,45.31,95.51,38.88,165.77-9.8,107.09-101.57,189.37-190.9,236.82-28.87,15.34-73.14,43.34-98.96,43.98-26.87,.65-81.24-28.41-109.59-43.98-82.12-45.1-202.48-144.66-187.35-274.03,2.89-24.7,17.43-52.02,24.75-77.8,21.81-76.87,38.34-177.21,21.21-274.03m14.14,213.13c-9.09,51.44-38.9,99.39-42.42,148.85-6.35,89.31,67.44,171.24,116.65,209.75,29.61,23.17,116.85,78.76,162.62,77.81,29.29-.6,83.2-31.67,109.57-47.36,71.25-42.39,175.62-132.64,162.61-246.97-4.71-41.36-26.68-83.1-35.35-128.55-12.18-63.83-21.19-135.14-14.14-202.98-129.47,32.19-322.75,31.33-452.47,0,7.02,57.2,2.75,133.89-7.07,189.45"/>
    <path class="cls-3" d="M147.59,216.13c129.72,31.33,323,32.19,452.47,0-7.04,67.85,1.96,139.15,14.14,202.98,8.67,45.45,30.64,87.19,35.35,128.55,13.01,114.33-91.36,204.57-162.61,246.97-26.37,15.7-80.28,46.76-109.57,47.36-45.77,.95-133.01-54.64-162.61-77.81-49.22-38.52-123-120.44-116.65-209.75,3.52-49.47,33.33-97.41,42.42-148.85,9.82-55.56,14.09-132.25,7.07-189.45m24.75,20.3c-.05-7.95-9.64,1.24-7.07,6.77,.72,79.73-3,145.4-17.68,206.37-8.92,37.09-33.27,71.97-35.35,108.25-6.11,106.96,93.13,184.71,159.07,223.28,25.34,14.82,76.04,48.14,106.06,47.36,23.44-.6,67.36-27.31,91.9-40.6,75.5-40.87,171.72-126.05,166.14-230.05-1.99-37.15-26.04-75.01-35.35-115.02-15.73-67.59-14.49-137.53-21.21-209.75-118.94,30.48-282.47,25.91-406.52,3.38"/>
    <path class="cls-2" d="M578.85,233.04c6.72,72.22,5.49,142.16,21.21,209.75,9.31,40.01,33.36,77.87,35.35,115.02,5.58,104-90.64,189.18-166.14,230.05-24.54,13.29-68.46,40-91.9,40.6-30.02,.77-80.71-32.54-106.06-47.36-65.94-38.57-165.18-116.32-159.07-223.28,2.08-36.28,26.43-71.17,35.35-108.25,14.67-60.97,18.39-126.64,17.67-206.37-2.57-5.53,7.03-14.72,7.07-6.77,124.05,22.53,287.58,27.1,406.52-3.38m-402.98,10.15c-4.12,.56-3.84,5.35-3.53,10.15,5.09,90.01-11.92,167.18-31.82,233.43-7.12,23.7-19.9,51.24-21.21,71.04-3.77,57.39,35.91,118.14,67.16,152.25,47.95,52.32,118.85,82.47,183.82,111.64,55.38-20.32,106.4-38.74,152-74.43,52.4-41,113.24-113.91,106.05-192.83-3.88-42.54-29.75-89.7-38.89-142.09-9.31-53.43-16.95-107.36-14.13-169.15-115.76,23.18-283.74,23.54-399.45,0"/>
    <path class="cls-2" d="M244.08,579.26c-1.85-5.27-6.16-7.41-13.74-5.34-.75-6.19,6.26-7.14,13.23-8.11-1.87-5.25-6.6-6.84-12.41-7.06,.51-5.63,12.92-4.67,17.07-4.2-.32-5.47-3.61-7.15-7.68-7.81,17.15-6.64,24.9,13.99,35.64,21.43,21.05-3.27,29.84-14.81,48.47-19.71-11.41-10.68-26.31-16.9-46.18-16.75,.93-1.55,2.51-2.67,4.25-3.68-2.62-2.54-9.76,.73-13.05-.94-2.28-4.16,3.09-3.16,5.83-3.93-1.7-4.29-7.85-2.89-10.6-5.84,.17-2.07,3.75-1.84,6.06-2.46-5.69-10.95-7.18-27.28-23.29-24.89,.89-5.64,11.11-7.02,16.84-5.67-.22-7.36-6.42-7.07-13.74-5.34,1.13-6.38,11.15-9.41,16.83-5.67-.62-7.44-5.5-9.43-11.29-10.24,5.6-5.91,14.26-.69,19.34-.05,2.54-4.54-3.31-10.13-8.15-10.74,7.64-6.2,14.64,3.57,18.92,7.53,3.45-4.53-4.06-10-5.47-14.17,16.78,.81,20.92,30.01,11.23,40.33,2.93,3.89,8.1,4.92,13.74,5.34,8.73,15.3,34.39,8.91,42.63,24.83,7.2-9.29,34.4-30.99,.54-27.15-2.47-9.96,17.48-4.8,19.05-12.04-16.03,.71-42.96,7.34-36.28-15.31,6.58,10.4,20.31,11.63,35.58,10.91-4.87-9.39-35.29-10.44-18.57-25.63,16.34,10.21,21.93-11.76,40.66-7.94-2.4-17.36,30.71-20.3,20.91-.3,4.01,6.22,12.14-1.67,19.11-1.52,7.89,2.84,9.32,18.69-1.7,19.82,2.48,6.83-.05,20.06,6.63,21.51-.65,4.51-5.21-.07-7.86,1.25-.02,4.73,2.91,5.68,5.88,6.59-1.44,4.51-7.17-.02-9.67,.03,.47,5.28,2.45,8.62,6.34,9.52,.77,3.14-5.47,1.55-7.63,2.71,5.65,7.48,2,26.84,11.17,29.81-.8,4.21-5.75-.62-8.1-.22-2.13,2.85-.81,16.25,4.13,15.89-.93,4.38-6.74,.65-9.44,1.5,2.39,4,4.65,8.15,9.49,9.02,.32,3.27-6.57,1.68-9.21,2.96,3.46,24.4,26.69,23.48,38.2,37.56-16.68,13.36,.7,26.32,5.4,44.26,4.69,17.89,19.25,19.87,24.22,30.75,10.34,22.62-2.48,44.11-32.12,51.71-.53,3.84-.59,6.27,2.97,8.55-2.94,4.78-7.45-3.29-10.37-4.37-5.38,.74-3.8,6.17-3.09,11.02-5.28-2.06-9.69-8.6-7.27-15.39-5.8,.89-6.27,5.38-8.27,8.83-6.06-5.03-.23-13.21,2.16-16.89-7.14-4.73-9.31,5.01-13.46,6.65-1.55-9.78,4.05-14.74,13.4-17.16-1.56-5.65-10.62-1.69-12.4-7.06,13.14-8.02,35.15,10.02,37.51-7.44,1.48-11-13.74-12-22.13-17.55-3.92,1.72-1.9,7.46-6.7,8.58-.83-4.82-3.81-6.88-3.66-12.95-1.96,1.3-2.43,3.6-2.22,6.37-5.3,.31-3.81-8.07-5.24-12.71-2.95,1.51-3.57,4.58-3.56,8.08-6.07-3.69-4.09-14.15-3.25-20.54-1.84-4.12-5.77-5.55-9.26-7.56-18.52,15.45-42.75,27.06-35.67,59.79-3.45,13.2-30.88,20.39-47.36,16.53-5.45,3.31-10.38,6.97-12.53,12.51-6.04-5.44-1.02-14.62,1.93-18.35-3.98-2.3-11.43,1-10.31,6.15-6.37-2.34-4.13-12.82,2.63-13.95-1.26-4.73-10.44-1.55-11.01,1.75-6.07-5.23,4.55-13.7,11.19-10.8-1.24-5.47-5.35-7.26-12.17-5.59,2.2-6.56,17.97-5.69,20.68-1.77-.47-5.27-2.45-8.62-6.34-9.52,5.99-4.67,14.95,1.98,14.67,11.21,4.49,3.61,15.5,1.2,18.87-2.99-2.84-10.22-.7-17.07-2.61-26.65-3.23-1.16-6.09-2.79-10.13-2.91,2.89-3.72,8.53-5.6,13.23-8.11-1.86-4.68-9.49-1.96-9.49-9.02,7.04-.49,12.09-2.32,15.26-5.43-2.74-2.38-8.91-.36-9.03-6.09,11.34-1.26,25.85-11.25,32.28-20.15-4.58-10.61-15.02-13.71-17.23-27.35-6.55,9.57-34.35,16.12-51.15,23.14,.64-1.31,1.26-2.64,.88-4.65-5.33,1.64-7.75,5.25-13.46,6.64-.44-2.92,4-2.54,2.22-6.36-4.28,1.48-7.83,3.45-12.12,4.93-.44-2.92,4-2.55,2.22-6.37-5.47-3.38-24.92-1.33-26.51,5.7-4.9-3.39,1.29-10.42,4.43-12.73-2.21-5.18-16.91-3.74-19.1,1.52-3.32-3.18,4.17-10.24,9.38-12.01"/>
  </g>
  <g>
    <path d="M208.07,371.79v-7.72c79.52,1.48,158.8-.05,238.14-.28-.7-1.03-1.69-2.5-2.68-3.96,6.18,5.99,12.16,3.49,18.25-.01,.86-.5,2.38-.59,3.27-.18,8.3,3.79,17,2.3,25.58,2.05,20.99-.61,42.06-2.73,62.6,3.82,1.97,.63,3.89,1.37,6.57,2.32-9.96,4.11-19.66,6.49-29.6,6.58-17.17,.15-34.35-.67-51.53-.68-4.48,0-8.95,1.6-13.46,2.27-1.29,.19-2.91,.08-3.99-.55-5.98-3.53-11.76-5.2-17.73,.5,.95-1.46,1.89-2.92,2.69-4.14H208.07Z"/>
    <rect x="208.01" y="359.99" width="7.03" height="14.37" rx="2.77" ry="2.77"/>
    <rect x="236.19" y="363.39" width="4.71" height="9.74" rx="1.88" ry="1.88"/>
    <rect x="239.22" y="363.34" width="4.71" height="9.9" rx="1.88" ry="1.88"/>
    <rect x="242.49" y="363.29" width="4.71" height="10.11" rx="1.88" ry="1.88"/>
    <rect x="246.01" y="363.23" width="4.71" height="10.32" rx="1.88" ry="1.88"/>
    <rect x="248.88" y="363.34" width="4.71" height="10.27" rx="1.88" ry="1.88"/>
    <rect x="252.13" y="363.23" width="4.71" height="10.27" rx="1.88" ry="1.88"/>
    <rect x="434.78" y="360.73" width="4.71" height="14.37" rx="1.88" ry="1.88"/>
    <rect x="424.88" y="361" width="4.71" height="14.37" rx="1.88" ry="1.88"/>
  </g>
  <rect x="414.29" y="361.58" width="2.34" height="12.03"/>
  <rect x="330.52" y="361.9" width="2.34" height="12.03"/>
  <rect x="332.01" y="363.61" width="82.92" height="8.83"/>
</svg>