<?xml version="1.0" encoding="UTF-8"?>
<svg id="Calque_1" data-name="Calque 1" xmlns="http://www.w3.org/2000/svg" viewBox="0 0 462.89 552.11">
  <defs>
    <style>
      .cls-1 {
        fill: #85388d;
      }

      .cls-1, .cls-2, .cls-3 {
        fill-rule: evenodd;
      }

      .cls-2, .cls-4 {
        fill: #f7ddc0;
      }
    </style>
  </defs>
  <path class="cls-3" d="M414.68,0V48.63c9,6.61,29.43,1,42.87,2.86-12.45,110.65,16.78,216.84,0,314.68-8.88,51.79-54.21,91.53-91.09,117.28-41.21,28.78-89.36,47.86-133.96,68.66C146.33,512.9,21.39,471.41,4.76,363.31c-14.95-97.22,11.1-201.84,0-311.82H47.63c1.75-16.25-3.53-40,2.68-51.49H414.68ZM61.03,14.3v51.49H18.16c11.61,104.08-15.65,203.36,0,294.65,5.08,29.62,27.64,60.98,45.54,80.09,43.67,46.63,111.21,68.72,168.79,97.26,55.79-29.78,122.79-51,166.11-97.26,18.16-19.4,40.37-49.5,45.54-80.09,15.46-91.31-11.46-190.55,0-294.65-13.44-1.86-33.87,3.75-42.87-2.86V14.3H61.03Z"/>
  <path class="cls-2" d="M401.28,14.3V62.93c9,6.61,29.43,1,42.87,2.86-11.46,104.1,15.46,203.34,0,294.65-5.17,30.59-27.38,60.7-45.54,80.09-43.32,46.26-110.32,67.48-166.11,97.26-57.58-28.54-125.12-50.63-168.79-97.26-17.9-19.11-40.47-50.47-45.54-80.09-15.65-91.29,11.61-190.57,0-294.65H61.03V14.3H401.28ZM74.42,25.75c.11,17.28,1.3,35.72-5.36,45.77-7.25,7.51-23.26,5.68-37.51,5.72V220.27c0,48.12-8.44,102.25,0,145.9,4.47,23.1,25.08,49.65,40.19,65.79,40.56,43.31,102.11,67.48,160.76,88.68,60.71-25.76,128.64-47.84,168.78-100.12,9.5-12.37,25.84-35.54,29.48-54.35,8.29-42.87,0-95.86,0-143.04,0-48.28,0-95.56,0-145.89-16.7,.67-33.19,1.1-40.19-8.58-2.97-12.09-3.09-27.22-2.68-42.91H74.42Z"/>
  <path class="cls-3" d="M387.89,25.75c-.41,15.69-.29,30.82,2.68,42.91,7,9.69,23.49,9.25,40.19,8.58,0,50.33,0,97.62,0,145.89,0,47.18,8.29,100.17,0,143.04-3.64,18.81-19.98,41.98-29.48,54.35-40.14,52.28-108.08,74.36-168.78,100.12-58.65-21.19-120.2-45.37-160.76-88.68-15.11-16.14-35.72-42.69-40.19-65.79-8.44-43.65,0-97.78,0-145.9V77.24c14.25-.04,30.26,1.79,37.51-5.72,6.66-10.05,5.47-28.49,5.36-45.77H387.89ZM79.78,31.47c-.71,10.47,1.15,36.22-8.04,45.77-5.94,9.87-31.08-.76-34.83,11.44V225.99c0,46.22-8.38,98.51,0,140.18,3.6,17.9,20.26,39.87,29.47,51.49,39.86,50.33,104.73,71.83,163.43,97.26,83.96-29.55,161.45-66.01,195.58-148.75V85.82c-10.7-5.74-31.35-.86-37.5-11.44-4.08-11.86-6.79-25.18-5.36-42.91H79.78Z"/>
  <path class="cls-1" d="M382.53,31.47c-1.42,17.73,1.28,31.05,5.36,42.91,6.16,10.59,26.8,5.71,37.5,11.44V366.17c-34.13,82.74-111.62,119.2-195.58,148.75-58.7-25.43-123.56-46.93-163.43-97.26-9.21-11.62-25.87-33.59-29.47-51.49-8.38-41.67,0-93.96,0-140.18V88.68c3.75-12.2,28.89-1.57,34.83-11.44,9.19-9.55,7.33-35.29,8.04-45.77H382.53Z"/>
  <g>
    <path class="cls-4" d="M368.88,356.55c-1.88,15.02-11.55,23.93-24.2,30.22-5.89,2.93-12.17,5.06-18.16,7.87,8.97-.12,17.79-.65,24.37-8.37-.03,6.35-7.78,15.08-13.64,16.78-9.96,2.89-19.75,6.35-28.73,9.28,1.68-3.41,4.63-4.91,12.09-7.12,7.59-2.25,14.95-5.28,22.41-7.96l-.41-2c-1.03-.2-2.11-.7-3.08-.55-7.13,1.14-14.27,2.28-21.36,3.67-6.38,1.25-10.62,5.06-13.01,11.21-2.22,5.71-4.92,11.23-7.59,17.25,1.38-.14,2.38-.23,3.39-.33-3.83,4.84-7.55,9.54-11.27,14.23,.53,.44,1.06,.88,1.59,1.33,17.17-10.23,33.73-21.24,46.05-37.56,.53,.39,1.07,.78,1.6,1.17-3.84,5.24-7.28,10.83-11.61,15.63-9.93,11.03-22.88,17.53-36.14,23.73-4.36,2.04-7.44,6.81-11.66,10.86,8.33-16.21,17.96-31.32,22.82-48.58-7.87,14.59-15.74,29.18-23.61,43.77-.69-.17-1.39-.33-2.08-.5,8.58-16.3-4.03-29.48-5.3-44.6,1.13,2.07,2.2,4.04,3.45,6.32,.58-1.03,1.04-1.86,2.2-3.93,2.07,10.77,3.91,20.33,5.71,29.68,5.94-7.91,7.44-21.56,3.46-34.01-2.83-8.85-7.01-16.55-11.39-24.48-2.87-5.18-4.29-11.17-6.17-16.87-.31-.95,.36-2.22,.86-4.78,2.84,7.67,4.51,14.37,7.72,20.24,3.23,5.91,7.99,10.99,12.49,16.29-4.95-18.35-19.09-34.18-15.53-52.83,7.4,20.64,15.41,42.97,23.58,65.77,5.76-10.99,3.37-21.48-1.5-31.47-3.89-7.98-9.22-15.25-13.25-23.17-2.84-5.59-4.59-11.74-6.84-17.68-.25,.54-.65,1.42-1.07,2.34-2.96-1.27,6.43-42.61,11.67-50.76-.81,15.58,1.04,30.49,8.45,43.93,5.29,9.6,12.04,18.4,18.94,27.25-.81-2.58-1.62-5.17-2.57-8.23h4.26c2.26-5.06-1.09-9-3.22-13.15-4.42-8.61-9.45-16.95-13.26-25.82-2.31-5.4-3.44-11.52-3.95-17.42-.89-10.25-4.65-19.26-9.94-27.84-.7-1.14-1.08-2.48-2.01-4.69,6.48,8,12.26,15.15,18.76,23.18-2.27-1.29-3.7-2.1-5.38-3.06,.06,.81-.09,1.46,.16,1.88,7.51,12.45,15.02,24.91,22.68,37.27,.77,1.25,2.47,1.93,3.73,2.87h-.09c-1.01,5.65-2.01,11.3-3.02,16.94,7.2-18.59,8.86-38,9.53-57.6,1.01-29.81-4.17-58.93-10.67-87.73-5.1-22.59-12.99-44.55-18.1-67.13-2.43-10.72-.98-22.28-1.83-33.42-.87-11.41-2.4-22.78-3.63-34.16-.1-.91-.09-1.82,.21-2.77,7.23,17.64,5.89,36.72,7.73,55.26,.73-.08,1.46-.15,2.19-.23,1.21-6.71,2.41-13.41,3.62-20.12,.51-.16,1.03-.32,1.54-.47,.54,2.02,1.78,4.14,1.5,6.04-1.56,10.76-3.68,21.44-5.18,32.21-.6,4.29-.1,8.73-.1,13.1,.62,.01,1.23,.02,1.85,.04,1.55-7.82,3.1-15.64,4.65-23.46,.67,.05,1.33,.11,2,.16-5.57,18.22-2.08,36.08,1.23,54.05-.92-25.79,15.59-47.37,16.97-72.58,.55,.01,1.1,.02,1.65,.04,0,3.01,.66,6.19-.12,8.98-2.89,10.38-6.34,20.61-9.4,30.95-2.36,7.99-4.45,16.06-6.65,24.09l1.61,.46c4.28-12.12,8.55-24.24,12.83-36.36,.44,.12,.88,.24,1.31,.36-1.9,6.77-3.61,13.61-5.74,20.31-2.18,6.87-5.08,13.52-7.07,20.44-2.05,7.14-3.99,14.46-.12,23.12,5.59-24.65,20.14-45.39,21.14-70.44,2.59,8.47,.31,16.39-2.48,24.26-4.89,13.81-11.34,27.32-14.11,41.55-1.85,9.53-2.92,20.15,.8,30.33,1.88,5.14,1.55,11.09,2.26,16.66,.16,1.29,.5,2.56,1.09,5.51,6.89-22.59,14.14-43.28,19.27-64.48,2.5-10.35,1.41-21.65,1.25-32.51-.07-4.67-1.9-9.31-2.37-14.09,5.6,13.62,7.75,27.79,4.99,42.16-2.19,11.41-5.31,22.68-8.65,33.82-3.6,12.05-8.21,23.79-11.8,35.84-1.36,4.56-1.43,9.61-1.49,14.44-.26,20.47-.29,40.94-.4,61.76-.07-.01,1.45,.24,2.97,.48l-.14-.15c-5.54,1.28-6.18,5.43-6.09,10.62,1.56-.83,2.79-1.48,4.22-2.24,.06,.78,.22,1.19,.09,1.43-2.29,4.1-4.82,8.08-6.77,12.32-.41,.9,1.22,2.75,1.92,4.16h-.03c.03,.71,.07,1.41,.1,2.12-7.21-.07-3.86,6.44-5.8,9.66-.11,.18,2.12,1.76,2.19,1.82-2.3,4.77-4.53,9.38-6.76,13.99,7.32-5.9,15.54-6.96,23.66-8.09,9.63-1.33,19.51-1.61,27.86-7.58l-.16-.13Zm-55.04,35.53c-.92,1.4-1.85,2.8-3.24,4.92,7.85-3.9,14.47-8.58,21.81-10.52,11.36-3,20.46-8.73,28.05-17.33,1.92-2.17,3.67-4.5,5.49-6.76-11.57,4.59-22.62,8.34-34.84,8.75-8.86,.3-17.17,9.86-17.53,18.61,.09,.78,.17,1.56,.26,2.33Zm-8.49-8.52c6.67-7.31,6.51-16.24-.86-27.6-9.27-14.29-17.92-28.87-20.4-46.18-.14-.96-.9-1.83-1.61-3.21-2.89,13.21-3.41,20.59,.73,32.18,3.22,9.03,8.37,17.37,12.68,26,3.18,6.37,6.4,12.72,9.47,18.8Z"/>
    <path class="cls-4" d="M323.41,322.82c-.4-4.71-.85-9.42-1.2-14.14-.36-4.87,.16-9.97-1.16-14.56-1.66-5.76-6.44-10.93-6.96-16.63-1.14-12.45-11.33-18.49-16.72-27.99,6.62,7.01,18.27,8.56,19.72,21.18,.73-.61,1.46-1.22,2.19-1.84-3.88-6.45-7.77-12.9-11.65-19.35,.47-.29,.94-.58,1.41-.87,4.39,6.92,8.78,13.85,14.01,22.1-2.21-22.85-16.49-36.68-30.33-50.79,4.22-2.2,6.47-1.01,9.34,2.12,6.28,6.88,13.37,13.01,19.51,18.84-.16-2.59-.41-6.45-.65-10.3,6.2,23.22,5.76,46.79,4.33,70.41-.44,7.28-1.31,14.53-1.95,21.8,.03,.01,.12,0,.12,0Z"/>
    <path class="cls-4" d="M327.8,344.76c1.22-2.21,1.95-4.99,3.74-6.54,8.99-7.79,19.15-14.42,27.17-23.08,6.95-7.51,13.05-16.58,16.84-26.04,4.34-10.81,5.72-22.81,8.67-35.52,2.02,14.1-1.59,26.2-4.54,38.64,1.88-3.28,3.76-6.56,5.64-9.85,.4,.21,.79,.42,1.19,.63-2.89,5.36-5.39,10.99-8.77,16.02-3.9,5.81-9.36,10.65-12.75,16.7-7.65,13.61-22.32,17.55-33.73,25.93-1.25,.92-2.32,2.07-3.47,3.11,0,0,.03,0,.03,0Z"/>
    <path class="cls-4" d="M369.02,179.38c5.71,15.8,3.49,30.59-.24,45.71-2.31,9.38-8.6,15.95-12.7,23.9-3.58,6.95-8.6,10.56-14.6,13.96-1.97,1.11-4.31,1.59-6.47,2.35l-.72-1.4c2.36-1.61,4.83-3.1,7.07-4.87,5.57-4.38,9.85-9.48,12.71-16.32,2.87-6.87,8.59-12.54,11.49-19.4,4.77-11.29,7.33-23.13,3.18-35.5-.77-2.28,.13-5.12,.29-8.43Z"/>
    <path class="cls-4" d="M363.64,170.23c6.79,19.76-12.61,62.08-28.73,74.3,13.9-23.08,29.37-45.55,28.73-74.3Z"/>
    <path class="cls-4" d="M369.04,356.68c-.61-2.09-1.23-4.18-1.81-6.15-11.97,1.74-23.44,3.4-36.73,5.33,2.54-1.85,3.88-2.82,5.36-3.9-1.96-.86-4.02-1.76-6.08-2.67,15.73,1.16,31.11,1.94,43.68-10.22,1.23,4.29-1.37,13.71-4.58,17.47,0,0,.16,.14,.16,.14Z"/>
    <path class="cls-4" d="M338.43,290.83c20.56-10.01,35.62-25.02,43.13-47.09,4.72,17.16-23.33,43.89-43.13,47.09Z"/>
    <path class="cls-4" d="M297.58,121.72c-9.92-20.52-3.07-43.62-10.15-64.57,11.21,20.32,4.09,43.46,10.15,64.57Z"/>
    <path class="cls-4" d="M317.85,219c1.41-23.62-19.45-34.66-27.66-53.05,5.28,6.1,11.34,11.71,15.61,18.45,3.78,5.98,10.85,9.83,11.56,17.88,.47,5.33,1.62,10.6,2.46,15.9-.65,.27-1.31,.54-1.96,.81Z"/>
    <path class="cls-4" d="M322.87,80.1c10.54,15.62,5.91,32.19,2.57,48.69-.56-16.17,2.42-32.54-2.57-48.69Z"/>
    <path class="cls-4" d="M361.13,254.92c6.06-9.92,12.65-20.7,18.79-30.76,3.54,7.25-6.46,24.35-18.79,30.76Z"/>
    <path class="cls-4" d="M334.58,318.62c3.28-2.08,6.79-3.87,9.79-6.29,7.64-6.16,15.05-12.59,22.04-18.48-1.15,7.7-19.72,22.46-31.97,24.62,0,0,.14,.15,.14,.15Z"/>
    <path class="cls-4" d="M311.51,345.18c-3.71-5.99-7.42-11.97-11.13-17.96,.46-.28,.91-.57,1.37-.85,3.74,5.92,7.48,11.84,11.23,17.75l-1.47,1.06Z"/>
    <path class="cls-4" d="M355.35,276.94c-6.17,3.48-12.33,6.95-18.5,10.43-.23-.4-.45-.8-.68-1.19,6.06-3.51,12.11-7.03,18.17-10.54,.34,.44,.67,.87,1.01,1.31Z"/>
    <path class="cls-4" d="M313.58,389.74c2.12-2.52,3.06-6.2,7.27-6.68,.79-.09,1.27-2.29,2.05-3.4,.65-.91,1.54-1.65,2.32-2.47,3.7,5.93,7.47-.36,11.21,.04,.85,.09,1.74-.31,2.64-.49-8.52,5.18-16.88,10.26-25.24,15.34-.09-.78-.17-1.56-.26-2.33Z"/>
  </g>
  <g>
    <path class="cls-4" d="M115.72,406.72c11.37,8.13,22.65,16.38,34.15,24.31,3.77,2.6,8.11,4.38,12.65,6.78q-.77-5.01-13.3-17.1c1.8,.82,3.61,1.63,6.59,2.99-3.37-6.27-6.66-11.47-9.05-17.06-4.91-11.49-15.47-8.94-22.48-10.02-2-2.28-2.72-3.86-3.89-4.32-6.95-2.75-14.18-4.85-20.99-7.9-12.59-5.64-16.99-17.37-20.75-29.41,2.93,5.42,7.56,8.65,13.49,9.67,4.48,.77,9.09,.99,13.65,1.15,9.5,.35,18.91,.9,27.93,6.45-2.19-4.1-4.38-8.21-6.6-12.36,.29-.71,1.56-2.28,1.4-3.7-.67-5.79-1.5-6.84-4.73-7.82,2.87-4.1,1.11-7.73-1.33-11.13-1.53-2.12-3.43-3.97-5.78-6.63,2.12,.34,3.43,.56,4.75,.77,1.2-6.54-2.89-8.34-7.87-9.55-12.8-3.12-23.25-10.01-31.7-20.03-.31-.37-.27-1.05-.58-2.41,6.24,4.78,11.59,9.55,17.58,13.3,6.08,3.82,12.79,6.64,19.95,10.26,.41-2.5,.91-3.67,.72-4.7-3.51-19.16-3.77-38.47-2.98-57.86,.1-2.36-1.22-5.55-2.98-7.11-19.01-16.86-30.44-37.61-32.96-62.99-.4-4.07,.34-8.26-.21-12.5-.89,3.03-1.77,6.06-2.66,9.09-.45-.13-.89-.26-1.34-.39,1.06-3.73,2.13-7.47,3.19-11.2,.97-.13,1.94-.27,2.92-.4-1.58,30.98,13.19,54.64,32.77,76.24-1.55-4.42-3.03-8.87-4.66-13.26-1.78-4.8-2.88-10.16-5.81-14.14-2.87-3.9-2.23-8.43-4.4-12.35-2.44-4.4-4-9.36-5.43-14.23-4.45-15.12-6.96-34.01,.76-52.96,.53,4.37,.99,8.19,1.45,12-.19,.04-.39,.09-.58,.13-.23-.85-.46-1.69-1.09-4.05-.85,2.93-1.95,4.68-1.72,6.24,2.32,15.4,.41,31.33,7.05,46.24,6.01,13.49,10.72,27.55,17.21,41.72,.36-5.44,.97-10.88,.96-16.32,0-2.42-.34-3.85,1.34-6.51,2.15-3.41,.69-9.24,.4-14-.14-2.26-1.15-4.47-.89-7.07,.68,1.05,1.37,2.09,3,4.59-4.28-25.37-22.68-44.61-21.57-69.84,2.73,23.01,17.05,41.66,24.71,63.24,0-4.79,1.12-9.92-.22-14.29-3.55-11.55-8.18-22.76-12.34-34.13-1.23-3.35-2.3-6.76-3.44-10.14l1.44-.53c4.7,11.41,9.39,22.82,14.09,34.22,.35-.07,.7-.14,1.05-.21-.53-2.77-.69-5.68-1.65-8.29-3.15-8.54-6.29-17.11-10.01-25.41-4.33-9.67-6.79-19.48-4.84-31.13,2.09,12.73,5.05,23.91,10.43,34.92,5.44,11.12,6.95,24.16,10.15,36.25v-18.96c.61,1.3,1.07,2.29,1.53,3.28,.54-.02,1.08-.03,1.62-.05-.88-11.44-1.77-22.87-2.65-34.31,.19-.05,.37-.1,.56-.15,1.87,7.87,3.73,15.73,5.79,24.42,4.91-21.49-6.43-40.32-6.5-60.53,.73,2.9,1.47,5.81,2.4,9.49,.51-1.61,.81-2.57,1.36-4.31,1.63,8.27,3.13,15.87,4.63,23.46,.45,.06,.89,.12,1.34,.18,.64-2.31,1.67-4.59,1.85-6.94,.99-12.67,1.73-25.36,2.67-38.03,.12-1.54,.96-3.03,1.25-3.88v56.78c.24,.12,.49,.24,.73,.36,.86-4.84,2.16-9.65,2.51-14.53,.75-10.51,.61-21.09,1.64-31.56,.56-5.71,2.76-11.26,4.65-18.5-1.07,15.69-1.93,29.37-2.97,43.03-.7,9.26-1.12,18.21-7.56,26.39-3.77,4.8-3.7,12.52-5.73,18.81-11.05,34.37-17.56,69.68-20.44,105.55-2.12,26.37,.63,52.53,8.67,77.93,.33,1.03,1.07,1.93,2.4,2.66-1.17-5.84-2.34-11.67-3.52-17.51,0,0-.02-.01-.02-.01,1.13-.78,2.68-1.3,3.33-2.37,6.75-11.11,13.41-22.28,19.93-33.52,.67-1.15,.27-2.92,.45-5.51,4.21-5.66,9.13-12.29,15.12-20.35-.97,2.68-1.16,4.04-1.86,5.04-7.07,10.06-8.61,21.64-10.3,33.45-1.86,12.98-7.09,24.86-15.07,35.55-2.57,3.45-3.58,8.07-5.3,12.15,.58,.3,1.15,.6,1.73,.9,.88-.64,1.76-1.28,3.39-2.45-.43,3.53-.8,6.53-1.28,10.41,16.65-20.69,29.52-41.71,26.67-69.11,.62,1.05,1.49,2.03,1.82,3.16,3.42,11.85,8.89,23.64,9.43,35.64,.41,9.09-4.94,18.69-8.74,27.64-3.23,7.62-8.18,14.49-11.87,21.94-4.29,8.67-4.03,17.59,.13,27.21,.82-1.61,1.43-2.55,1.8-3.58,4.82-13.48,9.95-26.86,14.28-40.49,2.79-8.81,4.39-18,6.22-25.76,4.66,19.14-6.97,36.07-13.47,54.13,10.23-8.69,16.01-19.62,18.66-32.35-.42,18.71-12.2,32.52-21.48,47.39,.46,.22,.92,.45,1.38,.67,1.58-2.55,3.16-5.1,4.75-7.65-4.13,12.58-3.1,24.33,3.63,36.89,1.73-9.06,3.07-16.87,4.82-24.58,.37-1.64,2.24-2.94,3.43-4.39,0,0-.02,0-.02,0-.41,.5-.82,1-1.22,1.51,.31,.21,.61,.42,.92,.62,1.12-2,2.23-4,3.35-6,.19,.06,.38,.12,.56,.19-2.26,7.17-4.7,14.29-6.71,21.53-2.04,7.35-3.02,14.77,2.42,21.6l-2.17,1.02c-8.37-13.25-16.75-26.51-25.12-39.76-.45,.26-.91,.51-1.36,.77,6.47,11.53,12.94,23.06,19.64,35-18.05-5.14-34.87-11.69-47.54-25.82-2.28-2.55-3.85-5.74-5.75-8.64l.26-.23Zm20.69-23.99c-4.76-6.79-10.67-11.5-19.56-11.09-3.05,.14-6.21,.45-9.14-.18-7.58-1.61-15.07-3.7-23.59-5.86,6.1,7.77,12.88,13.81,21.07,17.31,10.01,4.28,20.65,7.05,31.07,10.35,.24,.07,.98-1.46,1.48-2.24-.44-2.76-.88-5.53-1.32-8.29Zm10.79,.64c-.12-1.81-.24-3.62-.42-6.37,.57,1.48,.77,2.04,1.02,2.58,.06,.12,.3,.16,.43,.22,1.68-3.76,3.19-7.62,5.09-11.28,4.01-7.7,8.75-15.07,12.24-23,5.36-12.16,6.74-24.8,1.76-37.63-2.9,18.75-11.23,35.05-22.12,50.06-6.78,9.35-2.42,17.2,2,25.41Z"/>
    <path class="cls-4" d="M126.91,324.91c-1.49-19.45-3.28-38.89-4.29-58.37-.34-6.51,1.24-13.13,2.06-19.69,.67-5.38,1.5-10.74,3.13-16.05-.38,5.65-.76,11.29-1.28,18.97,8.29-12.1,16.39-21.97,29.58-25.92-12.94,15.09-28.33,28.63-30.2,51.23,3.89-5.9,7.24-11,10.6-16.09,.39,.24,.78,.47,1.17,.71-1.57,2.92-3.13,5.85-4.7,8.77,.32,.33,.63,.67,.95,1,4.45-3.88,8.91-7.75,13.36-11.63,.34,.24,.67,.49,1.01,.73-2.26,3.08-4.51,6.18-6.8,9.25-1.56,2.1-3.25,4.12-4.76,6.26-2.5,3.56-1.79,7.33-.67,11.16,.17,.57-.3,1.57-.79,2.04-9.76,9.34-9,20.92-7.23,32.81,.23,1.51-.74,3.2-1.15,4.81,0,0,.02,.01,.02,.01Z"/>
    <path class="cls-4" d="M63.22,266.29c4.93,13.36,8.7,27.32,15.14,39.92,5.61,10.99,15.63,18.93,26.33,25.49,6.3,3.86,12.41,8.01,18.61,12.03-.4,.66-.79,1.32-1.19,1.97-9.33-4.99-19.8-8.63-27.7-15.3-10.12-8.55-18.37-19.38-26.93-29.63-1.52-1.82-.46-5.67-.95-8.52-1.48-8.68-3.14-17.34-4.73-26,.47,0,.95,.02,1.42,.03Z"/>
    <path class="cls-4" d="M115.4,271.5c-8.69-.54-14.54-3.97-19.24-8.39-4.9-4.62-9.3-10.15-12.57-16.04-7.36-13.22-10.53-27.6-9.12-42.96,2.21,28.7,15.31,50.86,40.93,67.39Z"/>
    <path class="cls-4" d="M111.52,297.05c-21.02,1.73-52.27-30.57-46.09-49,.34,.12,.99,.25,.99,.37-.11,15.35,9.59,25.16,20.3,33.63,7.77,6.14,17.03,10.39,24.8,15Z"/>
    <path class="cls-4" d="M120.98,350.05c-2.21,1.5-4.42,3-6.63,4.5,.55,.41,1.11,.82,2.35,1.73-6.43,0-12.08,.16-17.73-.05-5.13-.19-10.24-.8-15.37-.36-1.92,1.26-1.89-4.19-4.83-.72-1.4-3.2-2.8-6.4-4.2-9.6,.33-.47,.65-.94,.98-1.41,14.18,10.94,29.72,9.21,45.43,5.91Z"/>
    <path class="cls-4" d="M127.76,220.48c1.76-5.86,2.18-12.67,5.53-17.41,9.26-13.1,19.74-25.34,30.36-37.63-3.68,5.74-7.14,11.64-11.1,17.18-5.52,7.72-11.82,14.91-17,22.85-2.97,4.56-4.38,10.15-6.49,15.28-.43-.09-.87-.17-1.3-.26Z"/>
    <path class="cls-4" d="M115.46,406.95c-3.04-2.73-6.3-5.25-9.06-8.24-2.62-2.84-4.72-6.17-6.16-10.09,3.82,1.9,7.64,3.8,11.97,5.95-1.17,.47-2.06,.83-3.42,1.38,8.84,8.18,21.58,4.86,30.5,12.18-7.97-1.67-15.94-3.34-24.37-5.11,.33,1.52,.57,2.61,.8,3.69,0,0-.26,.23-.26,.23Z"/>
    <path class="cls-4" d="M66.87,235.24c6.66,9.35,13.56,19.05,19.66,27.61-12.31-4.94-21.99-18.61-19.66-27.61Z"/>
    <path class="cls-4" d="M117.31,130.69c-2.62-14.09-3.66-27.93,7.21-41.55-1.94,6.09-3.68,10.58-4.73,15.22-.69,3.07-.46,6.37-.5,9.57-.07,5.57-.02,11.14-.02,16.71-.65,.02-1.31,.03-1.96,.05Z"/>
    <path class="cls-4" d="M178.47,404.94c-4.8-4.41,.7-8.48,.69-12.81,0-5.64,2.34-11.27,4.92-16.71-1.88,9.84-3.76,19.68-5.64,29.51,0,0,.02,0,.02,0Z"/>
    <path class="cls-4" d="M198.24,473.29c-4.5-5.65-9.01-11.3-13.51-16.95,.41-.35,.83-.69,1.24-1.04,4.6,5.6,9.2,11.21,13.8,16.81-.51,.39-1.02,.78-1.53,1.17Z"/>
    <path class="cls-4" d="M113.07,292.95l-19.57-8.68c.23-.53,.46-1.05,.69-1.58,6.47,3.01,12.94,6.02,19.41,9.04-.18,.41-.36,.81-.53,1.22Z"/>
    <path class="cls-4" d="M137.73,391.02c-8.55-4.38-17.11-8.75-25.39-12.99,4.68-2.22,10.54,6.86,14.51,1.95,3.98,1.15,6.76,1.95,9.55,2.75,.44,2.76,.88,5.53,1.32,8.29Z"/>
  </g>
  <g>
    <path d="M144.82,249.51c5.24-8.27,10.13-15.92,14.94-23.61,.58-.93,1.11-2.12,1.09-3.18-.25-12.44-.5-24.88-1.02-37.31-.1-2.31-1.35-4.57-2.68-6.92-.73,8.21-5.84,13.65-10.54,19.52-4.23,5.28-6.98,11.33-3.59,18.46,.55,1.17,.05,3.46-.81,4.57-3.55,4.59-7.85,8.04-14.21,7.79-6.6-.26-10.02-2.41-10.74-8.73-2.05-17.96-3.7-35.97-5.32-53.97-.26-2.93,.33-5.96,.73-8.92,.83-6.1,.33-7-5.7-8.73-1.7-.49-3.48-.73-6.55-1.35,3.67-2.65,6.27-5.38,9.45-6.59,3.36-1.28,4.85-3.11,5.9-6.39,3.31-10.25,8.26-19.59,16.76-26.62,6.33-5.23,13.62-7.31,21.79-6.76,9.96,.67,19.92,1.65,29.88,1.61,6.77-.02,13.54-1.55,20.96-2.48-4.09,2.63-7.9,6.28-12.4,7.7-6.39,2.01-13.25,2.79-19.98,3.33-7.53,.6-13.33,3.37-16.91,10.42,7.28-4.18,14.69-7.71,23.88-6.03-1.39,1.17-2.43,2.04-3.47,2.92,.24,.49,.47,.99,.71,1.48,3.78-1.59,7.79-2.81,11.31-4.85,10.92-6.34,22.6-7.35,34.69-5.36,3.12,.51,6.04,2.21,8.77,4.03-5.32-.65-10.64-1.3-15.25-1.86,6.21,3.11,12.66,6.57,19.31,9.58,3.51,1.59,7.37,2.41,11.3,3.65-8.87,4.73-18.81-3.69-26.56,.94,6.77,1.91,14.32,3.9,21.77,6.21,6.14,1.9,11.67,.24,18.11-2.9-4.9,6.26-11.06,7.15-17.76,8.09,4.3,3.36,8.47,2.42,12.77,2.14,3.97-.26,8.01,.63,11.96,1.59-10.92-1.09-19.8,9.87-31.55,5.26,11.1,3.15,19.67,9.1,26.52,18.81-5.26-1.31-9.84-2.45-14.35-3.57-2.52,7.31-.37,20.04,7.91,26.38-2.45-.32-4.03-.53-5.63-.75,1.47,5.19,4.32,7.76,11.53,9.84,7.89,2.27,14.86,5.79,19.3,13.07,.99,1.62,1.77,3.38,2.32,5.37-9.79-8.63-20.63-13.51-34.6-11.91,3.39,8.36,9.43,12.91,16.96,16.54-9.56,.85-15.66-2.16-27.9-13.56-1.03,5.82,1.21,10.21,4.74,14.09,9.06,9.95,20.99,12.75,33.78,13.35,12.76,.6,25.62,.44,38.25,2.06,18.55,2.38,34.07,10.67,44.55,26.95,2.6,4.04,5.8,7.7,8.63,11.61,1.23,1.7,2.2,3.59,3.28,5.39,.75-.59,1.51-1.18,2.26-1.77,.43-14.03-1.43-27.34-12.79-37.95,.88-.19,1.65-.31,2.38-.53,.6-.19,1.16-.5,2.16-.95-6.23-6.62-13.96-7.99-22.14-8.94-6.66-.77-13.22-2.56-19.77-4.09-1.3-.3-2.41-1.46-3.48-2.61,6.85,.49,13.69,3.88,20.14-.96-8.86-9.51-24.7-11.36-35.55-4.15,.14-8.21,4.86-10.5,21.38-11.18-2.04-2.54-5.48-5.78-7.56-9.74-2.48-4.71-4.22-9.93-5.5-15.12-1.8-7.33-2.88-14.84-4.24-22.11,6.52,5.11,10.24,12.52,11.95,21.08,1.52,7.65,6.18,12.28,13.46,14.47,1.55,.47,3.2,.59,5.28,.96-1.8-3.95-3.38-7.42-4.96-10.88,7.49,4.42,14.88,7.88,24.74,9.31-1.87-2.92-3.02-4.71-4.17-6.5,10.01,.41,14.74,5.94,25.33,29.82,2.12-8.87,1.28-18.13,6.65-25.26-.46,8.98-1.53,18.12-1.23,27.22,.31,9.12,3.12,17.81,8.75,25.5,1.77-7.62,1.82-15.14-.76-22.64,.54-.21,1.07-.41,1.61-.62,2.35,5.41,5.93,10.63,6.8,16.26,1.82,11.89,1.67,24.1-3.89,35.14-2.67,5.31-6.75,10.25-11.2,14.25-5,4.5-11.19,5.83-17.22,.5-2.47,4.59-4.35,9.26-7.25,13.17-4.72,6.36-9.72,12.63-15.35,18.17-3.7,3.64-4.78,7.37-2.9,11.56,4.29,9.51,8.86,18.92,13.83,28.09,3.02,5.58,3.62,8.95-1.03,13.4-12.49,11.95-25.12,23.78-38.23,35.03-2.85,2.45-7.95,2.28-12.01,3.32-.38-.5-.77-.99-1.15-1.49-.13,2.39-.66,4.84-.3,7.15,.56,3.63-.8,4.75-4.22,4.73-5.63-.04-11.27,.39-16.89,.22-3.38-.1-4.21-2.07-2.44-5.08,3.73-6.36,7.38-12.74,15.52-14.38,1.09-.22,2.17-.9,3.06-1.61,12.52-9.86,25.01-19.74,37.49-29.66,3.78-3.01,3.63-5.96,.42-9.63-6.24-7.13-12.24-14.48-18.03-21.97-6.85-8.85-12.17-18.56-14.6-29.75-9.46,1.76-18.59,3.24-27.63,5.17-27.36,5.82-53.32,1.54-77.67-11.54-14.59-7.84-28.41-17.11-42.64-25.63-8.11-4.86-16.17-9.84-24.57-14.16-7.34-3.78-9.35-3.07-11.67,4.59-3.06,10.09-5.12,20.48-7.68,30.72-.43,1.75-.88,3.59-1.8,5.09-3.33,5.45-3.34,7.76,1.44,12.49,2.32,2.3,2.89,4.16,.84,6.74-3.27,4.13-5.98,8.88-9.86,12.31-4.5,3.98-8.22,2.09-9.63-3.74-3.05-12.6-2.15-24.57,2.63-36.88,4.89-12.6,8.17-25.88,11.55-39.01,2.95-11.48,9.93-15.66,21.07-11.65,5.13,1.85,10.28,3.67,14.89,5.32Z"/>
    <path d="M177.04,294.66c-4.69,4.21-9.8,4.27-14.82,5.4-14.97,3.38-29.71,7.8-44.53,11.83-.78,.21-1.5,.61-2.4,.99-2.5-2.72-2.77-4.76-.55-8.23,2.04-3.2,2.04-7.71,2.89-11.47,7.86-4.15,16.28-8.05,24.13-12.89,7.02-4.33,6.75-4.81,13.55-.26,7.13,4.77,14.23,9.58,21.73,14.63Z"/>
    <path d="M335.08,363.28c-6.34,3.49-12.43,6.8-18.47,10.18-2.74,1.54-5.37,3.28-8.12,4.82-3.58,2-4.85,5.08-3.59,8.8,1.02,2.99-.23,4.16-2.63,5.32-4.32,2.06-8.52,4.36-14.28,7.33,.37-6.1,.51-11.07,1.06-15.99,.23-2.08,1.46-4.04,2.01-6.11,1.59-5.92,4.7-9.3,11.11-11.48,8.5-2.89,16.15-8.26,24.61-12.81,2.59,3.1,5.3,6.35,8.3,9.95Z"/>
    <path d="M88.58,319.26c4.36,5.68,3.51,11.69,2.91,16.91-.33,2.85-4.88,5.22-7.53,7.81l-2.01-.35c1.49,2.7,2.98,5.4,4.74,8.6-3.19,6.19-8.04,11.31-15.76,13.08-3.82,.88-6.26-.08-6.8-4.6-1.26-10.41-.28-19.76,8.8-26.92,5.45-4.3,10.23-9.45,15.64-14.52Z"/>
    <path d="M277.01,321.69c7.82-1.98,15.47-4.01,23.2-5.74,.9-.2,2.63,1.04,3.22,2.05,5.65,9.69,11.14,19.47,16.45,28.83-6.83,.57-35.17-15.59-42.86-25.14Z"/>
  </g>
  <path class="cls-4" d="M257.42,474.15c5.02-5.19,10.05-10.39,15.07-15.58,.4,.37,.79,.73,1.19,1.1-4.97,5.28-9.93,10.57-14.9,15.85-.45-.46-.9-.91-1.36-1.37Z"/>
</svg>