<?xml version="1.0" encoding="UTF-8"?>
<svg id="Calque_1" data-name="Calque 1" xmlns="http://www.w3.org/2000/svg" viewBox="0 0 523.01 542.04">
  <defs>
    <style>
      .cls-1 {
        fill: #ed8e2e;
      }

      .cls-1, .cls-2, .cls-3 {
        fill-rule: evenodd;
      }

      .cls-4 {
        fill: #56131e;
      }

      .cls-2 {
        fill: #f7ddc0;
        stroke: #1d1d1b;
        stroke-miterlimit: 10;
      }
    </style>
  </defs>
  <path class="cls-3" d="M259.74,39.11c31.33-30.89,92.42-15.02,145.91-21.87,23.56-3.02,39.64-18.48,61.29-16.4,12.99,87.37,48.38,173.15,55.44,259.66,5.05,61.72-21.34,112.49-49.61,144.86-43.98,50.38-103.47,68.06-169.27,101.13-16.89,8.49-31.55,19.33-40.86,35.53-48.86-50.8-137.96-66.35-192.61-117.53C35.53,392.19,0,338.04,0,279.64,0,186.76,43.43,106.81,55.45,9.05V.85c17.47-4.79,33.95,12.13,58.37,16.4,48.41,8.46,122.05-11.98,145.92,21.87ZM67.12,25.45C57.22,114.04,13.47,196.48,14.59,282.38c1.83,140.26,160.94,183.62,250.98,235.06,23.75-28.57,63.96-33.55,96.31-49.19,70.9-34.29,154.93-100.53,145.91-205-7.04-81.56-39.8-163.44-52.53-246-59.41,30.71-158.53-6.42-195.53,43.73C223.44,8.36,121.88,49.11,67.12,17.25v8.2Z"/>
  <path class="cls-2" d="M67.12,17.25c54.75,31.86,156.32-8.88,192.61,43.73,37-50.15,136.12-13.03,195.53-43.73,12.73,82.55,45.48,164.43,52.53,246,9.02,104.47-75.01,170.71-145.91,205-32.34,15.64-72.56,20.62-96.31,49.19C175.54,466,16.42,422.63,14.59,282.38,13.47,196.48,57.22,114.04,67.12,25.45v-8.2ZM29.18,263.24c-11.82,149.53,135.09,184.56,233.47,237.79,97.05-51.73,227.93-87.35,233.47-215.92,3.62-84.02-41.49-164.31-49.61-251.46-40.37,19.6-97.95,1.07-140.09,10.93-21.08,4.93-26.61,23.18-46.69,24.6-34.47-41.79-125.2-14.02-180.94-35.53-12.87,75.8-43.6,153.5-49.61,229.6Z"/>
  <path class="cls-3" d="M78.8,33.65c55.74,21.51,146.47-6.26,180.94,35.53,20.08-1.42,25.61-19.67,46.69-24.6,42.14-9.86,99.72,8.66,140.09-10.93,8.12,87.15,53.23,167.45,49.61,251.46-5.54,128.57-136.42,164.2-233.47,215.92-98.38-53.23-245.29-88.26-233.47-237.79,6.02-76.09,36.74-153.8,49.61-229.6Zm230.56,16.4c-18.12,3.67-29.95,24.6-46.7,24.6s-30.27-21.07-49.61-24.6c-42.89-7.83-88.51,7.67-128.41-8.2-.16-1.67-.44-3.24-2.92-2.73v8.2c-8.14,84.65-58.06,165.34-46.69,251.46,14.99,113.64,132.37,147.05,224.71,194.06,98.57-45.65,225.22-84.01,230.55-207.72,3.5-81.45-40.83-156.88-46.69-243.26-41.45,15.93-90.35-.69-134.24,8.2Z"/>
  <path class="cls-1" d="M443.59,41.85c5.87,86.39,50.2,161.82,46.69,243.26-5.32,123.71-131.98,162.07-230.55,207.72-92.34-47.01-209.72-80.42-224.71-194.06-11.36-86.12,38.56-166.81,46.69-251.46v-8.2c2.48-.5,2.75,1.07,2.92,2.73,39.9,15.87,85.52,.37,128.41,8.2,19.34,3.53,32.69,24.6,49.61,24.6s28.57-20.93,46.7-24.6c43.89-8.89,92.79,7.73,134.24-8.2Z"/>
  <path class="cls-4" d="M336.14,418.36c5.22-27.94-18.46-49.76-40.24-57.84,12.71,10.43,23.03,22.23,22,39.94-1.03,17.64-12.12,28.43-26.17,38.01,1.97-8.75,3.75-16.62,5.38-23.86-7.65,5.25-14.91,10.67-22.59,15.39-7.83,4.82-16.54,7.57-26.25,9.24,6.32-20.41-.45-36.59-13.87-50.52-6.95-7.21-15.32-13.04-22.18-20.32-14.51-15.39-24.39-33.45-28.57-54.4-.56,0-1.11,0-1.67-.01-.45,14.46-2.15,29.03-1,43.36,1.15,14.3,5.15,28.38,7.83,42.18-10.83-4.82-26.03-22.67-32.34-46.1-.48,12.44-6.62,22.27,14.17,60.48-33.16-26.91-51.91-61.87-55.07-104.32-3.15-42.32,9.7-79.96,37.81-112.29-13.84,8.54-25,19.82-34.34,32.8-9.26,12.87-16.62,26.88-21.86,42.01-2.57-30.58,4.07-59.05,20.7-84.55,16.61-25.47,39.65-44,67.32-57.15-7.26,.8-14.53,1.6-21.79,2.4-.05-.53-.1-1.05-.15-1.58,45.3-28.32,93.38-32.57,144.39-16.21-3.14-2.84-6.28-5.69-9.64-8.73,32.86-.67,74.87,33.3,70.07,70.7-8.02-2.98-16.12-5.99-24.65-9.16,10.14,8.94,19.84,17.16,29.15,25.81,8.47,7.87,12.95,17.77,15.55,29.18,1.37,6.03,6.32,11.43,10.26,16.65,7.22,9.57,14.91,18.78,22.35,28.18,.64,.81,.93,1.9,1.47,3.05h-28.11c-1.08,5.33,.69,7.72,9.13,10.56,4.85,1.63,7.77,8.99,15.01,4.52-3.25,5.91-5.39,11.89-12.53,15.56,.49-2.47,.73-3.71,.78-3.95-9.77,2.6-19.61,5.62-29.63,7.79-9.93,2.15-19.96,5.62-30.26,.42,.36,9.08,8.82,14.8,17.47,12.27,11.95-3.49,23.8-7.32,36.68-11.31-1.24,3.79-1.77,7.71-3.72,10.71-1.88,2.88-1.77,5.06-.82,8.02,6.31,19.68-4.97,38.16-21.32,45.89-.6-4.15-.63-8.42-1.91-12.28-2.8-8.48-10.1-13.24-17.18-17.41-8.49-5.01-17.8-8.62-26.68-13-17.22-8.48-32.58-18.97-39.74-38-.68-1.8-1.18-3.66-1.77-5.49-.47,.01-.94,.02-1.41,.03-.9,6.08-1.79,12.16-2.68,18.15-6.73-2.65-12.84-19.94-15.41-41.44-1.77,6.57-4.31,13.03-5.15,19.72-1.93,15.47,1,30.06,12.08,41.72,8.25,8.68,19.29,13.05,30.05,18.01,10.94,5.05,22.3,10.44,31.29,18.21,16.06,13.89,14.78,33.56,5.48,50.41-1.65,2.99-3.8,5.69-5.72,8.53Zm-99.19-201.18c15.72-2.64,29.25-7.3,37.93-23.35-7.85,1.34-14.35,2.46-22.08,3.78,7.98-8.52,16.74-14.08,27.15-17.33-.2-.42-.4-.84-.6-1.26h-9.86c10.49-5.69,21.59-6.83,33.54-5.22-4.2-5.11-8.36-9.83-13.34-13.44-16.04-11.63-37.46-7.54-42.58,13.9-1.44,6.04-1.63,12.39-2.3,18.61-.91,8.41-1.65,16.85-7.85,24.31Zm89.76-1.12c0,.56,0,1.11,0,1.67,.72,.34,1.91,.52,2.08,1.04,2.47,7.76,8.58,8.52,15.42,8.65,2.48,.05,5.23,1.2,7.35,2.62,5.15,3.45,10.01,7.36,15.77,11.67-5.24-7.97-9.78-14.84-14.27-21.74-1.53-2.35-2.19-5.45-6.13-5.13-6.73,.55-13.48,.82-20.22,1.21Z"/>
</svg>