<?xml version="1.0" encoding="UTF-8"?>
<svg id="Calque_1" data-name="Calque 1" xmlns="http://www.w3.org/2000/svg" xmlns:xlink="http://www.w3.org/1999/xlink" viewBox="0 0 595.95 841.89">
  <defs>
    <style>
      .cls-1 {
        fill: #c6c6c6;
      }

      .cls-1, .cls-2, .cls-3, .cls-4, .cls-5, .cls-6, .cls-7, .cls-8, .cls-9, .cls-10, .cls-11, .cls-12 {
        fill-rule: evenodd;
      }

      .cls-2 {
        fill: #e7d088;
      }

      .cls-3 {
        fill: #fff;
      }

      .cls-13 {
        clip-path: url(#clippath-2);
      }

      .cls-4 {
        fill: #9d9d9c;
      }

      .cls-5 {
        fill: #6e4f33;
      }

      .cls-6 {
        fill: #432918;
      }

      .cls-14 {
        stroke: #1d1d1b;
        stroke-miterlimit: 10;
      }

      .cls-14, .cls-15 {
        fill: none;
      }

      .cls-16 {
        clip-path: url(#clippath-1);
      }

      .cls-7 {
        fill: #b2b2b2;
      }

      .cls-8 {
        fill: #b3b2b2;
      }

      .cls-9 {
        fill: #1d1d1b;
      }

      .cls-17 {
        clip-path: url(#clippath);
      }

      .cls-10 {
        fill: #7b6a58;
      }

      .cls-11 {
        fill: #9e6a39;
      }

      .cls-18 {
        fill: url(#linear-gradient);
      }

      .cls-12 {
        fill: #8e725a;
      }
    </style>
    <clipPath id="clippath">
      <rect class="cls-15" x=".34" width="595.28" height="841.89"/>
    </clipPath>
    <clipPath id="clippath-1">
      <path class="cls-15" d="M338.58,155.25c-15.56,5.3-24.92,22.21-40.63,22-13.76-.19-26.86-17.37-40.63-22-57.04-19.19-139.19,1.21-189.6-33-12.46,13.4-12.76,39.97-23.71,55,51.04,62.33,52.77,216.02,3.39,282.33,10.22,71.78,29.65,124.63,67.72,172.33,30.27,37.94,130.11,118.65,186.23,117.33,21.73-.5,62.62-25.08,88.02-40.33,31.05-18.64,52.44-36.08,74.49-58.67,36.61-37.47,91.28-117.64,84.65-187-2.25-23.6-20.42-44.53-27.09-69.67-22.37-84.32-3.64-154.73,30.48-216.33-6.83-18.28-13.5-36.71-20.32-55-51.77,33.39-136.26,13.68-193,33"/>
    </clipPath>
    <linearGradient id="linear-gradient" x1=".34" y1="841.89" x2="1.34" y2="841.89" gradientTransform="translate(-127.59 428021.66) scale(507.89 -507.89)" gradientUnits="userSpaceOnUse">
      <stop offset="0" stop-color="#2d2e83"/>
      <stop offset="1" stop-color="#1d71b8"/>
    </linearGradient>
    <clipPath id="clippath-2">
      <rect class="cls-15" x=".34" width="595.28" height="841.89"/>
    </clipPath>
  </defs>
  <g class="cls-17">
    <path class="cls-9" d="M47.4,56.25c46.93,64.07,178.76,36.2,250.56,73.34,74.29-35.67,203.84-11.47,253.95-73.34-1.56,42.18,45.71,86.95,44.01,128.33-.82,19.91-26.96,40.9-33.86,58.67-27.64,71.17-5.63,148.68,27.08,205.33-13.73,145.34-78.5,236.45-182.83,296.99-31.33,18.19-76.11,46.78-104.95,47.67-33.68,1.04-91.47-35.45-121.9-55-32.99-21.18-70.29-49.95-94.79-80.66C51.69,616.29,.85,523.28,10.15,452.25c5.45-41.64,36.26-78.77,37.24-128.33,1.17-58.73-21.47-94.29-47.4-139.33C17.75,143.92,31.22,98.62,47.4,56.25m-27.09,124.67c23.96,41.56,47.17,87.7,44.02,150.33-2.73,54.53-33.37,88.68-37.24,128.33-7.06,72.29,48.15,161.72,84.65,201.66,36.5,39.95,128.68,111.53,189.61,110,60.26-1.51,147.15-71.35,179.44-106.33,38.39-41.57,97.53-132.62,88.04-209-4.47-35.91-29.99-65.43-33.85-106.33-7.76-81.97,11.01-118.85,44.01-165-13.23-29.67-25.64-60.24-33.86-95.33-18.86,.77-26.57,14.48-47.41,22-62.92,22.71-164.84,5.21-203.15,44-55.06-50.38-190.22-14.02-240.41-69.67-9.91,33.26-21.17,65.08-33.86,95.33"/>
    <path class="cls-2" d="M54.16,85.58c50.19,55.65,185.35,19.29,240.4,69.67,38.31-38.79,140.23-21.29,203.15-44,20.83-7.52,28.55-21.23,47.4-22,8.22,35.1,20.64,65.66,33.86,95.33-33.01,46.15-51.78,83.04-44.01,165,3.86,40.9,29.38,70.42,33.85,106.33,9.5,76.37-49.64,167.43-88.03,209-32.29,34.98-119.18,104.82-179.44,106.33-60.93,1.54-153.11-70.04-189.61-110-36.5-39.94-91.71-129.37-84.65-201.66,3.88-39.65,34.51-73.8,37.24-128.33,3.15-62.64-20.06-108.77-44.02-150.33,12.69-30.26,23.95-62.07,33.86-95.33m6.78,25.67c-5.98,26.52-18.31,46.18-23.71,73.33,27.75,40.37,46.26,90.16,40.64,157.67-4.07,48.84-34.28,86.73-37.24,121-5.3,61.25,43.7,143.97,74.49,179.66,22.49,26.08,50.66,46.67,81.26,66,27.18,17.16,73.8,47.48,101.58,47.66,24.72,.18,69.85-25.53,94.81-40.33,33.04-19.6,50.73-37.91,74.49-62.33,38.35-39.42,96.86-119.89,88.03-194.33-3.05-25.75-24.06-50.69-30.47-80.66-17.22-80.45-.2-145.17,37.24-198-11.92-20.1-17.1-47.48-27.08-69.66-61.1,38.95-179.79,15.52-237.02,58.66-56.31-44.13-176.07-19.55-237.01-58.66"/>
    <path class="cls-9" d="M297.95,169.91c57.23-43.14,175.91-19.71,237.02-58.66,9.98,22.18,15.16,49.57,27.08,69.66-37.45,52.83-54.46,117.56-37.24,198,6.41,29.98,27.41,54.92,30.47,80.66,8.84,74.44-49.67,154.91-88.02,194.33-23.76,24.43-41.45,42.73-74.49,62.33-24.96,14.8-70.09,40.5-94.81,40.33-27.78-.18-74.4-30.5-101.58-47.66-30.6-19.33-58.76-39.92-81.25-66-30.79-35.69-79.79-118.41-74.49-179.66,2.96-34.27,33.18-72.16,37.24-121,5.62-67.51-12.88-117.29-40.64-157.67,5.4-27.15,17.72-46.81,23.71-73.33,60.94,39.12,180.7,14.53,237.01,58.66m40.63-14.66c-15.56,5.3-24.92,22.21-40.63,22-13.76-.19-26.86-17.37-40.63-22-57.04-19.19-139.19,1.21-189.6-33-12.46,13.4-12.76,39.96-23.71,55,51.04,62.33,52.77,216.02,3.38,282.33,10.22,71.78,29.65,124.63,67.72,172.33,30.27,37.94,130.11,118.65,186.23,117.33,21.73-.5,62.62-25.08,88.02-40.33,31.05-18.64,52.44-36.09,74.49-58.67,36.61-37.47,91.28-117.64,84.65-187-2.25-23.6-20.42-44.53-27.09-69.67-22.37-84.32-3.63-154.73,30.49-216.33-6.83-18.29-13.5-36.71-20.32-55-51.77,33.39-136.26,13.68-193,33"/>
  </g>
  <g class="cls-16">
    <rect class="cls-18" x="44.01" y="122.25" width="511.12" height="628.31"/>
  </g>
  <g class="cls-13">
    <path class="cls-14" d="M531.58,122.25c6.82,18.29,13.5,36.71,20.32,55-34.12,61.6-52.86,132.01-30.48,216.33,6.68,25.13,24.84,46.07,27.09,69.67,6.63,69.35-48.04,149.53-84.65,187-22.05,22.58-43.44,40.03-74.49,58.67-25.41,15.25-66.29,39.82-88.02,40.33-56.12,1.32-155.96-79.39-186.23-117.33-38.07-47.7-57.5-100.55-67.72-172.33,49.38-66.31,47.66-220-3.38-282.33,10.94-15.03,11.25-41.6,23.71-55,50.42,34.21,132.57,13.81,189.6,33,13.77,4.63,26.87,21.81,40.63,22,15.7,.22,25.06-16.69,40.63-22,56.73-19.32,141.22,.39,193-33Z"/>
    <path class="cls-11" d="M511.62,148.84c2.67,5.81,3.21,17.54-5.65,16.75,2.08-3.41,6.31-4.57,5.65-10.83-4.3,1.61-7.29,2.67-7.54-3.94-2.18,1.01-1.95,4.53-1.88,7.88-10.17-4.13,3.5-18.43,9.42-9.85"/>
    <path class="cls-11" d="M102.74,156.72c-5.05-3.53-3.48-1.53-8.48,.98-.84-1.75-2.63-2.5-1.88-5.91-8.52,2.78,.45,12.35,0,14.77-6.85-1.77-5.88-11.52-3.77-17.73,6.42-4.31,14.24-.34,14.13,7.88"/>
    <path class="cls-11" d="M504.08,173.47c-2.76-1.35-3.13-4.06-.94-5.91-.85-1.74-2.11-3.05-3.77-3.94-3,1.51-4.14,.35-7.54,0,3.05-10.9,15.79,2.04,12.25,9.85"/>
    <path class="cls-11" d="M116.88,172.48c-4.58,3.09-10.15,5.15-11.31,11.82-15.03-6.68,5.97-29.4,11.31-11.82m-11.31,7.88c-.06-2.89-2.15-3.66-3.77-4.93,.53,2.4,.81,5.07,3.77,4.93"/>
    <path class="cls-11" d="M116.88,174.45c3.47,.64,4.94,3.37,5.65,6.89-2.91,1.88-5.64,3.95-7.54,6.9-3.31,.17-3.1-3.33-5.65-3.94-2.74,2.39,5.69,5.2,2.83,7.88-2.46-.71-2.89-3.55-5.65-3.94,0-8.21,5.95-10.2,10.36-13.79"/>
    <path class="cls-9" d="M101.8,175.44c1.61,1.27,3.7,2.04,3.77,4.93-2.96,.14-3.24-2.53-3.77-4.93"/>
    <path class="cls-11" d="M492.77,187.26c.26,3.88-4.03,3.01-3.77,6.89-4.57-3.19,1.91-3.08,1.88-6.89-2.36-.17-2.29,2.21-3.77,2.96-4.23-.83-5.19-5.08-9.42-5.91-.22-4.17,2.75-5.01,3.77-7.88,4.85,2.48,8.83,5.87,11.3,10.83"/>
    <path class="cls-11" d="M128.18,189.23c-1.08,3.8-4.33,5.32-6.59,7.88-2.27-.91-3.52-2.88-4.71-4.92-3.4,3.3,3.39,4.27,2.83,7.88-3.46-.65-4.69-3.63-6.59-5.91,1.86-5.9,11.95-14.76,15.07-4.93"/>
    <path class="cls-11" d="M486.18,197.11c-1.99,.87-2.79,3-5.65,2.96,.28-2.01,2.55-1.93,2.83-3.94-1.21-2.75-1.95,3.1-4.71,1.97-1.24-1.99-3.09-3.33-5.65-3.94-.51-4.47,1.89-5.9,2.83-8.86,5.54,1.75,10.49,4.14,10.36,11.82"/>
    <path class="cls-11" d="M128.18,192.18c6.69,2.27,5.37,7.43,.94,10.83-3.38,.25-3.45-2.96-6.59-2.96,.5,3.41,4.4,3.28,4.71,6.89-4.4,.66-4.14-3.55-6.6-4.92,.55-5.33,6.5-5.03,7.54-9.85"/>
    <path class="cls-11" d="M470.16,194.15c4.79,.91,6.94,4.56,10.36,6.89-1.12,3.43-2.05,7.04-5.65,7.88-1.01-3.68,2.34-2.81,1.88-5.91-1.75-3.01-1.41,4.34-4.71,2.95-3.73-4.86-7.13-6.35-1.89-11.82"/>
    <path class="cls-11" d="M134.78,199.08c2.14,1.37,3.65,3.41,5.65,4.92-.6,3.97-5.07,3.89-6.59,6.89-3.03,.87-1.29-3.25-3.77-2.95-.25,2.88,2.13,3.03,1.88,5.91-2.72-.43-4.29-2.08-4.71-4.92,1.95-3.87,4.64-6.97,7.54-9.85"/>
    <path class="cls-11" d="M469.22,217.79c-.24-3.86,3.41-3.66,2.83-7.88-1.88,.99-1.49,4.36-4.71,3.94-2.01-3.15-6.88-3.32-7.54-7.88,2.52-.66,3.45-2.96,4.71-4.93,6.73,2.64,14.57,12.78,4.71,16.75"/>
    <path class="cls-11" d="M147.96,211.88c-4.79,.91-5.71,5.84-9.42,7.88-1.92-.29-1.85-2.67-3.77-2.96-.25,2.88,2.13,3.03,1.88,5.91-12.21-4.82,6.71-23.73,11.31-10.83"/>
    <path class="cls-11" d="M469.22,219.76c-.93,3.29-2.99,5.41-3.77,8.87-4.2-1.47,.54-4.42,.94-6.89-1.36-2.61-2.11,3.62-5.65,1.97-1.73-5.08-7.18-6.28-10.36-9.85,2.17-2,4.42-3.91,6.59-5.91,5.29,2.67,9.86,6.11,12.25,11.82"/>
    <path class="cls-11" d="M148.91,212.87c3.9,.19,3.19,5.2,6.59,5.91-3.71,3.67-7.83,6.91-11.3,10.83-3.49,.69-2.35-3.45-3.77-4.93-3.55,2.74,3.72,5.74,.94,7.88-3.21-.26-2.66-4.44-4.71-5.91,1.71-7.08,8-9.37,12.25-13.79"/>
    <path class="cls-11" d="M463.57,229.61c-.95,2.62-1.55,5.6-4.71,5.91-1.01-3.68,2.34-2.81,1.88-5.91-2.53-.68-1.82,2.04-2.83,2.96-5.47-2.49-7.26-8.83-13.19-10.83,.33-3.27,2.82-4.27,4.71-5.91,6.92,2.29,10.52,8.05,14.13,13.79"/>
    <path class="cls-11" d="M163.04,228.63c-5.86,2.74-10.27,7-15.07,10.83-1.31-1.25-.41-4.82-2.83-4.92-1.96,1.57,4.79,6.13,1.88,8.86-3.94-.81-4.56-5.08-5.65-8.86,6.18-4.14,17.5-22.82,21.67-5.91"/>
    <path class="cls-11" d="M458.86,237.49c-.72,3.18-2.61,5.15-5.65,5.91-2.25-2.47,2.38-3.3,1.88-6.89-1.16-2.4-2.61,3.09-3.77,3.94-4.08-3.94-7.26-8.83-13.19-10.83,.55-3.69,1.9-6.55,4.71-7.88,6.59,3.94,11.61,9.54,16.02,15.76"/>
    <path class="cls-11" d="M163.98,229.61c1.93,.27,1.88,2.63,2.83,3.94-2.72,5.7-9.57,15.35-16.02,10.83-.14,2.45,.49,4.09,1.88,4.93-1.86,3.13-4.38-1.23-4.71-2.95,2.73-8.31,9.6-12.29,16.02-16.75"/>
    <path class="cls-11" d="M452.26,244.39c-.59,2.34-1.27,4.59-3.77,4.92-.69-2.69,1.87-1.98,1.88-3.94-3.85,3.09-12.97-5.2-16.01-11.82,.88-.72,1.43-1.79,1.88-2.96,8.4,1.4,11.08,8.77,16.02,13.79"/>
    <path class="cls-12" d="M213.91,233.55c.77,9.34-2.57,14.39-3.77,21.67-3.76-1.65-1.73-9.35-3.77-12.81-15.31,.73-27.06,5.19-34.86,13.79,2.34-3.46,5.51-6.06,4.71-12.81,.29-2.27-2.72-1.09-2.83-2.95-12.07-1.25-25.76,25.33-5.65,20.68-8.12,6.28-9.87,19.23-12.25,31.52,2.84,2.29,6.71,3.49,10.36,4.93-5.73,1.89-14.44,.66-20.73,1.97,3.58-12.77-.31-28.42,3.77-41.37,3.88-12.33,20.41-16.6,25.44-26.6,13.59,.24,26.69,.99,39.57,1.97m-40.51,5.91c1.82,1.38,5.77,.54,4.71,4.92,6.67-4.84,19.1-3.68,26.38-7.88-11.06,.26-20.57,2.13-31.09,2.96m-21.67,51.22c2.48-9.23,2.64-20.88,8.48-26.6-5.51,1.5-3.93-4.43-5.65-6.89-.64,10.83-5.4,22.58-2.83,33.49"/>
    <path class="cls-12" d="M453.21,258.18c-.63,15.76,1.8,28.32,3.77,41.37-4.14,.16-15.99,.46-21.67-.98,2.62-3.17,8.25-3.2,10.36-6.89,1.25-4.56-2.43-11.7-1.89-18.71-7.73-9.98-20.03-15.18-25.44-27.58-6.64,1.82-14.53-2.17-23.55-.99-2.58,1.57-1.05,7.44-2.83,9.85-2.2-5.9-3.61-12.64-3.77-20.68,13.21,2.89,31.23-6.38,38.63-.99,9.26,6.75,17.33,19.24,26.38,25.61m-57.47-17.73c10.7-.36,21.33-.64,26.38,4.93-.55-4.52,3.14-4.59,4.71-6.89-10.59,.42-26-1.18-31.09,1.97m30.15,.99c-4.02,10.27,6.25,21.35,16.96,22.65,5.13-11.44-5.94-21.67-16.96-22.65m16.96,25.61c5.48,5.43,6.31,15.72,9.42,23.64-1.75-10.98-2.47-23.03-5.65-32.5,1.51,5.84-3,5.41-3.77,8.86"/>
    <path class="cls-9" d="M204.49,236.51c-7.28,4.21-19.71,3.04-26.38,7.88,1.06-4.39-2.89-3.54-4.71-4.92,10.52-.82,20.03-2.7,31.09-2.96"/>
    <path class="cls-9" d="M426.83,238.48c-1.57,2.3-5.26,2.38-4.71,6.89-5.04-5.56-15.68-5.28-26.38-4.92,5.09-3.15,20.5-1.55,31.09-1.97"/>
    <path class="cls-9" d="M442.84,264.09c-10.71-1.3-20.97-12.39-16.96-22.65,11.01,.99,22.09,11.22,16.96,22.65m-16.96-19.7c-1.65,6.83,13.59,22.78,16.02,15.76-4.49,1.16-18.32-10.26-11.31-14.77,1.12,2.11,1.02,5.5,2.83,6.9,4.46-2.77,5.3,2.56,8.48,3.94-2.83-6.03-7.95-14.51-16.02-11.82"/>
    <path class="cls-2" d="M174.34,243.4c-.18,10.65-5.41,16.01-15.07,16.75-1.47-8.18,5.97-19.68,15.07-16.75m-6.59,3.94c1.62,.39,2.42-1.46,2.83,0,1.01,3.79-7.66,8.35-5.65,3.94-2.75,.42-4.9,4.44-2.83,6.89,5.39-2.58,10.72-5.21,10.36-13.79-2.96-.47-3.85,1.23-4.71,2.96"/>
    <path class="cls-2" d="M441.9,256.21c-3.18-1.38-4.02-6.71-8.48-3.94-1.81-1.39-1.71-4.79-2.83-6.9-7.01,4.51,6.81,15.94,11.31,14.77-2.42,7.02-17.67-8.93-16.02-15.76,8.07-2.69,13.19,5.79,16.02,11.82"/>
    <path class="cls-9" d="M172.46,244.39c.35,8.58-4.98,11.21-10.36,13.79-2.07-2.45,.08-6.47,2.83-6.89-2.01,4.41,6.66-.15,5.65-3.94-.41-1.46-1.21,.39-2.83,0,.86-1.73,1.75-3.42,4.71-2.96"/>
    <path class="cls-5" d="M416.46,250.3c-4.96,3.69-15.29-.05-20.73-1.97,4.57-3.59,15.69-1.59,20.73,1.97"/>
    <path class="cls-7" d="M182.82,252.27c10.09,12.43,19.03,26.07,29.21,38.41-1.33,4.19-5.01,5.92-8.48,7.88-4.94-4.14-9.53-13.52-6.6-22.65-3.46-9.19-13.26-11.75-14.13-23.64"/>
    <path class="cls-9" d="M154.56,257.19c1.72,2.47,.14,8.39,5.65,6.89-5.84,5.71-6,17.37-8.48,26.59-2.57-10.91,2.19-22.66,2.83-33.49"/>
    <path class="cls-9" d="M446.61,258.18c3.19,9.47,3.9,21.53,5.65,32.5-3.1-7.92-3.94-18.21-9.42-23.64,.78-3.46,5.28-3.02,3.77-8.86"/>
    <path class="cls-7" d="M176.23,270.98c.64-4.93-2.52-5.91-4.71-7.88,.29-3.9,3.27,1.1,2.83-2.95,3.07-.26,4.53,1.17,4.71,3.94-2.57,.09-1.9-1.64-3.77,0,2.32,3.35,4.63,2.89,7.54,3.94-1.74,4.34,1.51,4.04,0,6.89-3.27-.19-3.58-3.48-6.6-3.94"/>
    <path class="cls-6" d="M288.34,264.09c35.31-2.89,67.89,8.72,89.5,24.62,33.25,24.47,61.32,72.15,65.01,122.14,5.93,80.48-32.56,140.87-81.02,168.43-37.37,21.25-93.33,19.47-128.13,0-43.06-24.09-76.18-73.16-80.08-132.97-2.6-39.82,8.81-80.33,21.67-104.41,16.8-31.45,46.72-59.29,83.85-72.89,9.07-3.32,19.04-4.09,29.21-4.92m7.54,28.56c14.67,3.04,18.57-24.4,2.83-24.62-5.21-.07-6.73,4.36-10.36,7.88-.55,10.76,2.52,15.71,7.54,16.75m49.93,10.83c17.75,.69,11.05-36.56-5.65-20.68-8.59,8.16-2.96,20.35,5.65,20.68m-103.63,2.96c16.95,5.58,19.48-26.72,1.88-22.65-10.2,2.36-12.38,19.2-1.88,22.65m-21.67,218.66c21.9,23.33,61.57,43.15,102.69,31.52,52.6-14.88,89.8-67.81,88.56-131.99-1-51.92-26.99-93.12-63.12-113.27-15.92-8.88-35.97-14.42-63.12-11.82-21.36,2.04-35.98,13.71-52.76,22.66-54.61,41.81-64.84,146.89-12.25,202.9m164.87-191.08c18.15,5.89,18.22-28.72,.94-22.66-9.28,3.26-9.72,19.8-.94,22.66m-187.48-5.91c3.85,20.96,34.11-.32,15.07-14.77-11.71-1.94-16.64,6.24-15.07,14.77m217.63,49.25c18.58-.32,8.18-34.38-6.59-20.68-7.64,7.08-2.99,20.85,6.59,20.68m-246.83,1.97c2.92,17.86,31.38,4.23,18.84-12.81-11.69-6.12-20.49,2.75-18.84,12.81m257.19,60.08c15.24,.54,14.23-30.52-3.77-22.66-9.75,4.26-6.36,22.3,3.77,22.66m-250.6,1.97c9.25-5.33,4.09-24.11-7.54-21.67-17.95,3.76-6.3,29.65,7.54,21.67m237.41,29.55c-9.32,9.12-2.07,26,10.36,21.67,6.51-2.27,7.98-16.11,1.88-21.67-3.15-1.4-9.1-1.4-12.25,0m-232.7,31.52c12.73-.28,14.26-29.3-3.77-22.65-10.82,3.99-6.86,22.89,3.77,22.65m214.8,36.44c14.47-.78,10.68-31.12-5.65-21.67-9.04,5.23-5.46,22.27,5.65,21.67m-185.59-15.76c-14.34-2.36-17.87,25.82-.94,23.64,8.26-1.06,9.8-10.98,7.54-16.75-2.08-5.3-2.62-6.24-6.6-6.89m141.32,51.22c17.58,2.5,15.22-29.9-1.88-21.67-9.97,4.79-6.6,20.46,1.88,21.67m-98.92,5.91c16.76,1,13.47-32.52-6.59-21.67-5.61,8.53-2.19,21.14,6.59,21.67m46.16-15.76c-10.15,.68-13.75,18.82-2.83,24.62h7.54c11.05-5.91,6.57-25.38-4.71-24.62"/>
    <path class="cls-7" d="M173.4,265.07c-1.22,4.86-5.18,4.22-7.54,1.97,1.37-1.87,4.92-4.42,7.54-1.97"/>
    <path class="cls-7" d="M163.04,269.01c10.99,6.9,14.73,21.37,32.97,20.68,1.12,4.09,3.5,6.85,5.65,9.85-1.34,5.16-4.48,8.44-9.42,9.85-9.23-13.99-19.7-26.69-29.21-40.38"/>
    <path class="cls-7" d="M419.29,273.94c-.78-2.78,1.33-2.55,.94-4.92,2.05,.87,2.88,5.5-.94,4.92"/>
    <path class="cls-10" d="M308.12,282.8c-5.38,3.72-13.89,4.98-18.84,0-2.95-16.08,21.35-14.85,18.84,0"/>
    <path class="cls-7" d="M433.42,270.98c2.41-.04,1.15,.73,.94,1.97-10.3,11.55-18.88,24.91-29.21,36.44-4.82-1.2-5.98-6.22-9.42-8.87,3.62-8.79,12.65-13.44,22.61-12.8,5.28-5.32,9.13-12.12,15.07-16.75"/>
    <path class="cls-4" d="M176.23,271.97v3.94c-3,.85-2.91-1.55-4.71-1.97,.8-1.46,3.03-1.43,4.71-1.97"/>
    <path class="cls-10" d="M352.4,282.8c9.62,10.46-7.12,18.53-15.07,10.83-2.9-8.42,6.19-14.84,15.07-10.83"/>
    <path class="cls-9" d="M244.06,283.79c17.6-4.07,15.07,28.23-1.88,22.65-10.5-3.45-8.32-20.29,1.88-22.65m-6.59,11.82c1.99,6.9,19.39,7.99,16.96-5.91-4.96-9.1-19.66-3.47-16.96,5.91"/>
    <path class="cls-10" d="M254.42,289.69c2.43,13.9-14.97,12.81-16.96,5.91-2.7-9.38,11.99-15.01,16.96-5.91"/>
    <path class="cls-9" d="M232.75,322.2c16.78-8.95,31.39-20.61,52.76-22.66,27.16-2.6,47.21,2.94,63.12,11.82,36.13,20.15,62.12,61.35,63.12,113.27,1.24,64.18-35.96,117.11-88.56,131.99-41.12,11.63-80.79-8.19-102.69-31.52-52.59-56.02-42.36-161.1,12.25-202.91m-45.22,111.3c.59,36.81,16.68,71.05,36.74,91.6,25.25,25.87,76.67,41.2,116.82,21.67,35.78-17.4,64.41-57.4,67.83-107.36,5.22-76.12-40.89-134.39-114.94-137.9-65.12,11.23-107.63,58.45-106.46,131.99"/>
    <path class="cls-9" d="M153.62,303.48c-3.49-.7-4.04,1.68-7.54,.98-.72-4.97,7.22-4.76,7.54-.98"/>
    <path class="cls-1" d="M293.99,301.51c74.05,3.51,120.15,61.78,114.94,137.9-3.42,49.96-32.06,89.96-67.83,107.36-40.15,19.53-91.57,4.21-116.82-21.67-20.06-20.56-36.16-54.79-36.74-91.6-1.17-73.53,41.34-120.75,106.46-131.99"/>
    <path class="cls-9" d="M445.67,301.51c4.19-.77,6.26,.67,8.48,1.97-1.71,2.04-8.58,1.15-8.48-1.97"/>
    <path class="cls-9" d="M386.32,311.36c17.28-6.07,17.2,28.55-.94,22.66-8.78-2.85-8.34-19.39,.94-22.66m-4.71,9.85c.77,5.44,9.79,9.1,16.02,4.92,5.76-15.59-17.93-18.39-16.02-4.92"/>
    <path class="cls-10" d="M397.62,326.14c-6.22,4.18-15.24,.51-16.02-4.92-1.92-13.47,21.78-10.66,16.02,4.92"/>
    <path class="cls-9" d="M212.97,313.33c19.04,14.46-11.23,35.74-15.07,14.77-1.57-8.54,3.36-16.72,15.07-14.77m3.77,9.85c.24-10.03-19.47-12.25-16.96,3.94,6.38,5.1,16.77,3.82,16.96-3.94"/>
    <path class="cls-10" d="M199.78,327.12c-2.51-16.19,17.2-13.97,16.96-3.94-.18,7.76-10.58,9.04-16.96,3.94"/>
    <path class="cls-10" d="M424,367.51c-15.82,17.17-24.9-18.43-5.65-12.81,3.53,1.03,5.67,5.97,5.65,12.81"/>
    <path class="cls-9" d="M187.53,366.52c12.54,17.03-15.92,30.66-18.84,12.81-1.64-10.06,7.15-18.93,18.84-12.81m-16.96,9.85c2.98,6.52,14.3,7.67,17.9,.98,.73-13.58-18.21-15.43-17.9-.98"/>
    <path class="cls-10" d="M188.48,377.36c-3.6,6.68-14.92,5.53-17.9-.98-.31-14.45,18.62-12.59,17.9,.98"/>
    <path class="cls-9" d="M422.12,416.76c18-7.86,19.01,23.19,3.77,22.65-10.13-.36-13.52-18.39-3.77-22.65m13.19,7.88c.25-5.11-4.01-9.19-11.31-6.9-19.73,6.21,10.51,23.23,11.31,6.9"/>
    <path class="cls-10" d="M424,417.74c7.29-2.29,11.55,1.79,11.31,6.9-.8,16.33-31.04-.69-11.31-6.9"/>
    <path class="cls-9" d="M167.75,419.71c11.63-2.44,16.79,16.34,7.54,21.67-13.83,7.98-25.48-17.91-7.54-21.67m-6.6,10.83c2.78,5.31,11.87,8.22,16.96,2.95,3.02-15.02-17.37-16.61-16.96-2.95"/>
    <path class="cls-10" d="M178.11,433.5c-5.09,5.27-14.18,2.35-16.96-2.95-.41-13.65,19.98-12.06,16.96,2.95"/>
    <path class="cls-9" d="M424.94,470.93c6.1,5.56,4.63,19.4-1.89,21.67-12.44,4.33-19.68-12.55-10.36-21.67,3.15-1.4,9.09-1.4,12.25,0m2.82,8.87c1.46-10.75-20.17-13.91-17.9,2.95,5.89,4.37,16.9,4.43,17.9-2.95"/>
    <path class="cls-10" d="M409.87,482.75c-2.27-16.86,19.36-13.7,17.9-2.95-1,7.38-12.01,7.32-17.9,2.95"/>
    <path class="cls-9" d="M176.23,479.8c18.03-6.64,16.5,22.38,3.77,22.65-10.63,.23-14.58-18.67-3.77-22.65m12.25,5.91c-1.19-5.23-6.44-5.93-10.36-4.92-22.19,5.7,15.3,26.66,10.36,4.92"/>
    <path class="cls-10" d="M178.11,480.78c3.92-1,9.18-.3,10.36,4.92,4.93,21.73-32.55,.77-10.36-4.92"/>
    <path class="cls-10" d="M403.27,525.1c-1.63,6.79-13.16,7.59-17.9,2.95-2.52-14.5,17.45-14.92,17.9-2.95"/>
    <path class="cls-10" d="M213.91,537.91c-6.55,2.59-15.12,.52-16.02-5.91,2.36-12.76,24.07-6.92,16.02,5.91"/>
    <path class="cls-7" d="M190.36,548.74c1.92,2.99-5.58,10.48-1.88,19.7-21.29,32.57-47.05,60.46-68.77,92.59,29.32-32.06,51.87-71.18,81.96-102.44-2.36,5.74-7.75,8.32-9.42,14.77,5.91,1.57,14.67-2.38,16.02-8.87-.84,8.25-8.99,14.05-14.13,20.69-5.52,7.12-9.72,15.27-16.02,20.68-9.13,15.41-21.64,27.28-31.09,42.35-8.64,6.73-19.74,10.89-28.26,17.73,6.13-53.67,48.76-77.73,71.6-117.21"/>
    <path class="cls-7" d="M402.33,548.74c23,24.87,40.7,55.29,63.12,80.77,4.11,12.77,9.07,24.66,12.25,38.41-13.39-5.3-26.17-11.85-34.86-22.66-19.97-24.85-36.73-53.81-57.47-77.81,5.78,1.09,8.6,9.8,18.84,7.88-2.33-6.75-8.15-9.87-10.36-16.74,28.22,34.19,53.15,71.82,81.02,106.38-20.58-32.33-44.65-61-66.89-91.6-1.05-10.67,.76-18.96-5.65-24.62"/>
    <path class="cls-10" d="M357.11,552.68c11.73,8.85-4.27,21.61-13.19,11.82-.1-8.64,3.49-13.43,13.19-11.82"/>
    <path class="cls-10" d="M261.02,569.43c-4.51,5.89-14.76,3.81-17.9-1.97-.03-12,20.44-13.65,17.9,1.97"/>
    <path class="cls-9" d="M302.47,589.13h-7.54c-10.93-5.81-7.33-23.95,2.83-24.62,11.28-.75,15.76,18.72,4.71,24.62m5.65-13.79c1.05-9.77-18.94-11.74-18.84,1.97,4.38,5.93,18.05,5.34,18.84-1.97"/>
    <path class="cls-10" d="M289.28,577.31c-.1-13.71,19.9-11.74,18.84-1.97-.79,7.31-14.46,7.9-18.84,1.97"/>
    <path class="cls-9" d="M436.25,276.89c3.44-.3,4.09,10.81,5.65,15.76,3.69-5.11-.79-16.25-3.77-20.68-10.62,13.19-20.01,27.67-31.09,40.38,23.57,31.02,42.27,75.11,38.63,131.99-2.71,42.22-21.78,77-40.51,101.45,15.95,20.75,31.62,42.38,48.05,64.02,12.48,16.44,24.56,34.07,27.32,60.08-14.54,1.92-22.68-10.97-34.86-14.77-18.87-31.17-41.91-57.97-63.12-86.68-27.54,27.03-91.9,38.84-137.55,20.68-10.28-7.31-22.77-12.31-32.03-20.68-24.14,26.64-44.93,56.77-66.89,85.69-12.18,3.72-21.89,15.14-32.97,16.74,9.53-58.32,50.36-83.93,76.31-125.09-23.6-31.03-42.27-75.12-38.63-131.99,2.71-42.21,21.93-76.93,40.51-101.45-9.96-12.56-18.54-26.58-29.21-38.41-1.74,4.75-3.25,9.73-3.77,15.76,1.07,6.12,13.96,5.08,13.19,9.85-4.36,6.6-17.9,3.62-25.44,6.89-6.93-13.02,1.19-36.84,2.83-53.19-10.2-10.02-14.38-26.33-21.67-39.4-10.56-10.95-23.41-19.52-29.21-35.46-.95-1.63-4-1.07-5.65-1.97,2.09-6.15-7.16-8.53-8.48-14.77-3.51-16.61,19.68-25.64,21.67-5.91,13.29,8.89,18.56,23.78,29.21,37.43,11.4,14.61,27.13,20.31,33.91,37.43,11.07-3.94,33.16,.65,48.99,.98-2.58,10.1-4.45,20.95-7.54,30.53-4.91-2.75-2.99-12.64-5.65-17.73-6.68,1.22-12.8,3.03-18.84,4.92,8.45,14.47,18.83,26.94,29.21,39.4,5.94-1.4,8.98-6.56,14.13-9.85,43.17-27.59,122.01-23.14,154.51,10.83,10.86-9.99,18.44-23.4,27.32-35.46-3.97-1.75-8.41-3.02-14.13-2.96-3.55,1.54-1.4,9.04-5.65,9.85-2.68-8.68-4.31-18.47-5.65-28.56,13.55-2.1,34.48-4.83,46.16,0,6.19-16.83,22.75-23.94,33.92-36.44,8.82-9.88,11.36-25.46,24.5-31.52,.91-4.3,2.35-8.05,6.59-8.86-.53-12,12.75-16.16,18.84-7.88,2.2,8.4,.66,19.13-7.54,19.7,.02,7.57-7.59,7.17-6.59,15.76-7.5,11.34-18.53,18.24-26.38,30.53-7.88,12.34-10.15,30.16-23.55,37.43,5.89,12.77,8.75,41.51,4.71,55.16-10.63-.05-19.61-1.82-26.38-5.91,1.03-4.83,6.87-4.63,10.36-6.89-.89-5.96-1.79-11.91-3.77-16.75m65.95-118.2c-.07-3.35-.29-6.87,1.88-7.88,.24,6.61,3.24,5.55,7.54,3.94,.66,6.27-3.58,7.42-5.65,10.84,8.86,.79,8.33-10.93,5.65-16.75-5.92-8.58-19.6,5.72-9.42,9.85m-413.58-9.85c-2.11,6.21-3.08,15.96,3.77,17.73,.45-2.43-8.52-11.99,0-14.77-.75,3.41,1.05,4.16,1.88,5.91,5-2.51,3.43-4.52,8.48-.98,.12-8.22-7.71-12.19-14.13-7.88m7.54,25.61c2.07-2.07,.19-4.38-.94-5.91,1.66-.89,1.56-3.63,3.77-3.94,4.44,1.45,9.51,.92,9.42-4.92-6.5-2.4-19.26,9.39-12.25,14.77m395.68-10.83c3.39,.35,4.54,1.51,7.54,0,1.66,.89,2.92,2.2,3.77,3.94-2.19,1.85-1.82,4.56,.94,5.91,3.54-7.81-9.2-20.75-12.25-9.85m-386.26,20.69c1.16-6.67,6.73-8.73,11.31-11.82-5.33-17.58-26.33,5.14-11.31,11.82m380.61-14.77c-.62,2.64-2.7,3.75-3.77,5.91,2.77,3.01,8.34,3.1,9.42,7.88,3.03,.87,1.29-3.25,3.77-2.95,1.02,2.52-2.86,4.69,0,5.91,5.77-5.59-.08-10.21-3.77-13.79,3.14,0,3.22,3.2,6.59,2.95-.05-1.69,.72-2.52,1.88-2.95-.81-5.52-8.85-9.48-12.25-3.94,1.4,1.16,4.21,.85,3.77,3.94-2.88,.05-2.26-3.55-5.65-2.95m-4.71,6.89c-1.02,2.87-3.99,3.71-3.77,7.88,4.23,.83,5.19,5.08,9.42,5.91,1.48-.75,1.41-3.12,3.77-2.95,.03,3.81-6.45,3.71-1.88,6.89-.26-3.88,4.03-3.01,3.77-6.89-2.47-4.96-6.45-8.36-11.3-10.83m-5.65,8.86c-.93,2.96-3.33,4.39-2.83,8.87,2.56,.61,4.41,1.95,5.65,3.94,2.76,1.13,3.5-4.73,4.71-1.97-.28,2.01-2.55,1.93-2.83,3.94,2.87,.04,3.66-2.08,5.65-2.95,.12-7.68-4.82-10.07-10.36-11.82m-369.3,2.95c2.76,.39,3.19,3.23,5.65,3.94,2.86-2.68-5.56-5.49-2.83-7.88,2.55,.61,2.34,4.12,5.65,3.94,1.89-2.95,4.63-5.01,7.54-6.89-.71-3.52-2.18-6.26-5.65-6.89-4.41,3.59-10.37,5.58-10.36,13.79m6.6,5.91c1.9,2.28,3.13,5.26,6.59,5.91,.57-3.6-6.23-4.58-2.83-7.88,1.19,2.04,2.44,4.02,4.71,4.93,2.26-2.56,5.52-4.08,6.59-7.88-3.13-9.83-13.21-.97-15.07,4.93m7.54,7.88c2.46,1.37,2.2,5.58,6.6,4.92-.31-3.62-4.21-3.48-4.71-6.89,3.14,0,3.22,3.2,6.6,2.95,4.42-3.4,5.75-8.57-.94-10.83-1.04,4.82-6.99,4.52-7.54,9.85m343.87-.98c-1.26,1.96-2.2,4.27-4.71,4.92,.66,4.56,5.53,4.73,7.54,7.88,3.22,.42,2.83-2.95,4.71-3.94,.58,4.22-3.07,4.02-2.83,7.88,9.86-3.97,2.02-14.11-4.71-16.74m-7.54,6.89c-2.17,2-4.42,3.91-6.59,5.91,3.18,3.56,8.63,4.77,10.36,9.85,3.55,1.65,4.29-4.58,5.65-1.97-.4,2.47-5.15,5.43-.94,6.89,.78-3.46,2.84-5.57,3.77-8.86-2.39-5.71-6.96-9.15-12.25-11.82m-7.54,7.88c-1.89,1.64-4.38,2.64-4.71,5.91,5.93,2.01,7.72,8.34,13.19,10.83,1.01-.92,.29-3.63,2.83-2.96,.45,3.1-2.89,2.23-1.88,5.91,3.16-.31,3.76-3.29,4.71-5.91-3.61-5.74-7.22-11.5-14.13-13.79m-6.59,5.91c-2.81,1.33-4.16,4.19-4.71,7.88,5.93,2.01,9.11,6.89,13.19,10.83,1.16-.85,2.61-6.34,3.77-3.94,.5,3.6-4.14,4.42-1.88,6.89,3.05-.76,4.93-2.73,5.65-5.91-4.41-6.22-9.43-11.81-16.02-15.76m-6.59,8.86c-.46,1.16-1,2.23-1.88,2.96,3.04,6.62,12.17,14.91,16.02,11.82-.01,1.96-2.57,1.25-1.88,3.94,2.5-.34,3.18-2.58,3.77-4.92-4.94-5.02-7.62-12.39-16.01-13.79m35.8-24.62c3.3,1.39,2.96-5.97,4.71-2.96,.46,3.1-2.89,2.23-1.88,5.91,3.6-.83,4.53-4.45,5.65-7.88-3.42-2.33-5.58-5.99-10.36-6.89-5.24,5.46-1.85,6.96,1.88,11.82m-344.81,2.96c.42,2.85,1.99,4.49,4.71,4.92,.25-2.88-2.13-3.03-1.88-5.91,2.48-.29,.74,3.82,3.77,2.95,1.53-3,5.99-2.93,6.59-6.89-2-1.52-3.51-3.56-5.65-4.92-2.9,2.88-5.58,5.98-7.54,9.85m9.42,13.79c.25-2.88-2.13-3.03-1.88-5.91,1.92,.29,1.85,2.66,3.77,2.96,3.71-2.04,4.64-6.97,9.42-7.88-4.6-12.89-23.51,6.01-11.31,10.83m0,3.94c2.04,1.47,1.51,5.65,4.71,5.91,2.78-2.14-4.49-5.15-.94-7.88,1.42,1.47,.28,5.62,3.77,4.93,3.47-3.92,7.59-7.17,11.31-10.83-3.41-.71-2.69-5.72-6.6-5.91-4.25,4.42-10.54,6.71-12.25,13.79m4.71,7.88c1.09,3.78,1.71,8.06,5.65,8.87,2.91-2.73-3.84-7.29-1.88-8.87,2.42,.1,1.51,3.67,2.83,4.92,4.81-3.84,9.21-8.1,15.07-10.83-4.17-16.91-15.49,1.77-21.67,5.91m6.6,11.82c.33,1.72,2.85,6.09,4.71,2.95-1.4-.84-2.03-2.48-1.88-4.92,6.44,4.51,13.3-5.14,16.02-10.83-.95-1.31-.89-3.66-2.83-3.94-6.42,4.45-13.29,8.43-16.02,16.75m26.38-14.78c-5.03,10-21.56,14.27-25.44,26.59-4.08,12.95-.18,28.6-3.77,41.37,6.29-1.3,15-.08,20.73-1.97-3.65-1.43-7.53-2.64-10.36-4.92,2.38-12.29,4.13-25.24,12.25-31.52-20.11,4.64-6.42-21.93,5.65-20.68,.1,1.86,3.11,.68,2.83,2.96,.8,6.74-2.37,9.34-4.71,12.8,7.79-8.6,19.54-13.06,34.86-13.79,2.04,3.45,0,11.16,3.77,12.81,1.2-7.28,4.54-12.33,3.77-21.67-12.88-.98-25.98-1.73-39.57-1.97m252.48,.99c-7.4-5.39-25.41,3.87-38.63,.98,.16,8.04,1.56,14.78,3.77,20.69,1.77-2.42,.25-8.28,2.83-9.85,9.03-1.18,16.91,2.8,23.55,.98,5.41,12.4,17.71,17.6,25.44,27.58-.54,7.02,3.14,14.16,1.89,18.71-2.12,3.7-7.74,3.73-10.36,6.89,5.68,1.45,17.53,1.15,21.67,.98-1.97-13.04-4.4-25.61-3.77-41.37-9.06-6.37-17.12-18.86-26.38-25.61m-267.56,27.58c9.66-.73,14.89-6.1,15.07-16.74-9.11-2.94-16.55,8.57-15.07,16.74m236.47-11.82c5.44,1.92,15.76,5.66,20.73,1.97-5.04-3.56-16.16-5.56-20.73-1.97m-198.78,27.58c-2.93,9.13,1.66,18.51,6.59,22.65,3.47-1.96,7.14-3.69,8.48-7.88-10.17-12.35-19.11-25.98-29.2-38.41,.87,11.89,10.67,14.45,14.13,23.64m219.51-13.79c2.92,.23,3.66,2.74,5.65,3.94h-4.71c2.69-2.72-1.12-3-2.83-3.94,.3,2.37-4.11,4.77-.94,6.89,1.97-3.23,1.35-1.5,.94,1.97,4.44,.26,7.91-8.37,11.3-2.95-2.07-2.26-3.76,.24-3.77,2.95,1.37,.54,4.87-1.15,4.71,.99-4.75,2.93-7.5,1.64-11.31,1.97-.83,3.16,2.44,2.04,2.83,3.94h-3.77c.21-6.56-3.72-3.86-2.83-9.85-4.84,1.17-4.79,7.47-6.6,11.82-.82-13.33,8.49-16.08,11.31-25.61-11.25,11.55-20.98,24.69-29.21,39.4,3.02,.46,3.32,3.75,6.59,3.94,5.24-3.72,8.46-9.54,11.31-15.76v5.91c2.66,.81,2.44-1.39,4.71-.98-1.5-4.65-3.38-11.39,.94-13.79-2.36,2.37-1.92,3.68,.94,4.92-2.54-.03-2.54,4.96,0,4.93-.57-2.56,.38-3.54,2.83-2.95-.07,1.71,.21,3.06,.94,3.94-2.15-.27-3.54,.24-3.77,1.97h4.71c-1.23-3.86,3.46-3.48,.94-.99,3.43,.09,4.85-4.88,1.88-5.91,5.23,.83,1.92-2.67,3.77-3.94,1.25,.01,.86,1.73,1.88,1.97,2.31-4.15,6.93-5.88,9.42-9.85-2.48-.71-3.57-5.83-6.6-2.96-.44,4.24,2.54,1.26,2.83,2.96-1.34,.24-1.59,1.62-2.83,1.97,.74-4.06-4.51-1.85-3.77-5.91,1.62,1.78,3.7-.3,3.77-2.95-4.17-1.08-4.68,1.67-7.54,1.97-.75-3.41,1.05-4.16,1.89-5.91-3.43,.36-5.31,2.33-5.65,5.91m3.77,6.89c.39,2.37-1.72,2.14-.94,4.92,3.82,.58,2.99-4.05,.94-4.92m-238.35-5.91c.04-1.36-.44-2.16-.94-2.95h1.88c.66-3.38-4.69-5.51-6.59-2.95,4.86-.7,3.51,2.78,5.65,5.91m-16.02,3.94c2.36,2.25,6.32,2.89,7.54-1.97-2.62-2.45-6.16,.1-7.54,1.97m16.96,7.88c1.51-2.86-1.74-2.55,0-6.89-2.91-1.05-5.22-.59-7.54-3.94,1.87-1.64,1.2,.09,3.77,0-.18-2.77-1.64-4.2-4.71-3.94,.44,4.06-2.54-.95-2.83,2.95,2.2,1.97,5.35,2.95,4.71,7.88,3.02,.46,3.32,3.75,6.59,3.94m76.31-5.91c-37.13,13.59-67.05,41.44-83.85,72.89-12.86,24.08-24.26,64.59-21.67,104.41,3.9,59.81,37.02,108.88,80.08,132.97,34.8,19.47,90.76,21.25,128.13,0,48.46-27.56,86.95-87.95,81.02-168.43-3.68-49.99-31.76-97.67-65-122.14-21.61-15.9-54.19-27.51-89.5-24.62-10.16,.83-20.14,1.6-29.21,4.93m-71.6,14.77c.94-4.27-1.05-5.46-1.88-7.88-2.84,2.12-6.17,4.26-9.42,.98,.42,9.08,10.12,8.47,17.9,9.85-.25-2.11,.73-10.51-.94-7.88-.52,1.43,1.1,5.09-.94,4.92-1.39-7.15-.98-13.77-6.59-18.71-1.81,7.67,7,14.08,1.88,18.71m-16.02-9.85c1.8,.42,1.7,2.81,4.71,1.97v-3.94c-1.68,.54-3.91,.51-4.71,1.97m20.73,35.46c4.94-1.4,8.08-4.69,9.42-9.85-2.16-3-4.54-5.76-5.65-9.85-18.24,.69-21.99-13.79-32.97-20.68,9.51,13.7,19.97,26.4,29.21,40.38m226.1-21.67c-9.96-.63-18.98,4.02-22.61,12.81,3.44,2.64,4.6,7.67,9.42,8.86,10.32-11.53,18.9-24.89,29.21-36.44,.21-1.24,1.47-2.01-.94-1.97-5.94,4.62-9.8,11.43-15.08,16.74m-272.27,16.75c3.49,.7,4.04-1.68,7.54-.99-.32-3.78-8.26-3.98-7.54,.99m308.07-.99c-2.21-1.3-4.28-2.75-8.48-1.97-.11,3.12,6.77,4.01,8.48,1.97M118.76,665.96c8.53-6.84,19.63-11,28.26-17.73,9.44-15.08,21.96-26.95,31.09-42.35,6.29-5.42,10.5-13.57,16.02-20.68,5.14-6.64,13.29-12.44,14.13-20.69-1.34,6.49-10.11,10.43-16.02,8.87,1.68-6.45,7.06-9.03,9.42-14.77-30.09,31.25-52.64,70.38-81.96,102.44,21.72-32.12,47.49-60.01,68.77-92.59-3.69-9.22,3.81-16.71,1.89-19.7-22.84,39.49-65.47,63.54-71.6,117.21m289.23-92.59c22.23,30.6,46.31,59.27,66.89,91.6-27.87-34.56-52.8-72.19-81.02-106.38,2.21,6.88,8.03,9.99,10.36,16.74-10.24,1.92-13.06-6.79-18.84-7.88,20.74,24,37.5,52.96,57.47,77.81,8.69,10.81,21.47,17.35,34.86,22.66-3.18-13.75-8.13-25.64-12.25-38.41-22.42-25.48-40.12-55.9-63.12-80.77,6.41,5.66,4.6,13.95,5.65,24.62"/>
    <path class="cls-11" d="M108.4,159.68c.09,5.85-4.98,6.38-9.42,4.92-2.21,.31-2.11,3.05-3.77,3.94,1.14,1.53,3.01,3.84,.94,5.91-7.01-5.38,5.75-17.17,12.25-14.77"/>
    <path class="cls-11" d="M491.83,172.48c.44-3.09-2.37-2.78-3.77-3.94,3.39-5.54,11.44-1.58,12.25,3.94-1.16,.43-1.94,1.26-1.88,2.95-3.38,.25-3.45-2.96-6.6-2.95,3.69,3.58,9.54,8.2,3.77,13.79-2.86-1.21,1.02-3.39,0-5.91-2.48-.29-.74,3.82-3.77,2.95-1.08-4.78-6.65-4.87-9.42-7.88,1.07-2.16,3.15-3.27,3.77-5.91,3.39-.59,2.77,3.01,5.65,2.96"/>
    <path class="cls-7" d="M422.12,256.21c-.84,1.75-2.63,2.5-1.89,5.91,2.85-.3,3.37-3.05,7.54-1.97-.06,2.65-2.15,4.73-3.77,2.95-.74,4.06,4.51,1.85,3.77,5.91,1.24-.35,1.48-1.73,2.83-1.97-.29-1.69-3.27,1.28-2.83-2.96,3.03-2.87,4.12,2.25,6.6,2.96-2.49,3.97-7.11,5.7-9.42,9.85-1.02-.24-.64-1.96-1.88-1.97-1.84,1.27,1.47,4.78-3.77,3.94,2.96,1.03,1.54,6-1.89,5.91,2.52-2.49-2.17-2.87-.94,.98h-4.71c.23-1.73,1.62-2.24,3.77-1.97-.73-.88-1.01-2.22-.94-3.94-2.45-.59-3.39,.39-2.83,2.95-2.53,.03-2.53-4.96,0-4.92-2.87-1.24-3.31-2.55-.94-4.92-4.32,2.39-2.44,9.13-.94,13.79-2.27-.4-2.05,1.8-4.71,.98v-5.91c-2.84,6.22-6.07,12.04-11.31,15.76-3.27-.19-3.58-3.48-6.59-3.94,8.23-14.71,17.96-27.84,29.2-39.4-2.82,9.53-12.13,12.28-11.31,25.61,1.81-4.35,1.75-10.65,6.6-11.82-.89,5.99,3.04,3.29,2.83,9.85h3.77c-.38-1.9-3.65-.78-2.83-3.94,3.81-.33,6.55,.96,11.31-1.97,.16-2.14-3.34-.45-4.71-.99,0-2.71,1.69-5.21,3.77-2.95-3.39-5.42-6.86,3.22-11.31,2.95,.4-3.47,1.03-5.2-.94-1.97-3.17-2.13,1.24-4.52,.94-6.89,1.71,.93,5.51,1.22,2.83,3.94h4.71c-1.99-1.2-2.74-3.71-5.65-3.94,.34-3.58,2.22-5.55,5.65-5.91"/>
    <path class="cls-7" d="M176.23,257.19c1.9-2.55,7.26-.43,6.6,2.96h-1.89c.5,.79,.98,1.6,.94,2.95-2.14-3.13-.79-6.61-5.65-5.91"/>
    <path class="cls-9" d="M288.34,275.91c3.64-3.52,5.15-7.95,10.36-7.88,15.75,.22,11.84,27.66-2.83,24.62-5.01-1.04-8.09-5.98-7.54-16.75m.94,6.9c4.96,4.98,13.46,3.72,18.84,0,2.5-14.85-21.79-16.08-18.84,0"/>
    <path class="cls-9" d="M340.15,282.8c16.71-15.87,23.4,21.37,5.65,20.68-8.62-.33-14.24-12.53-5.65-20.68m-2.83,10.83c7.95,7.69,24.69-.37,15.07-10.83-8.88-4.01-17.97,2.42-15.07,10.83"/>
    <path class="cls-7" d="M185.65,265.07c5.62,4.94,5.21,11.56,6.59,18.71,2.04,.17,.43-3.49,.94-4.92,1.67-2.63,.69,5.77,.94,7.88-7.78-1.38-17.48-.77-17.9-9.85,3.25,3.28,6.58,1.14,9.42-.98,.83,2.41,2.82,3.62,1.88,7.88,5.12-4.63-3.7-11.04-1.88-18.71"/>
    <path class="cls-9" d="M408.93,356.67c14.77-13.7,25.18,20.36,6.59,20.68-9.58,.17-14.23-13.61-6.59-20.68m9.42-1.97c-19.24-5.62-10.16,29.97,5.65,12.81,.02-6.84-2.12-11.77-5.65-12.81"/>
    <path class="cls-9" d="M389.14,517.22c16.33-9.45,20.12,20.89,5.65,21.67-11.11,.6-14.69-16.44-5.65-21.67m-3.77,10.83c4.73,4.64,16.27,3.84,17.9-2.95-.45-11.96-20.42-11.55-17.9,2.95"/>
    <path class="cls-9" d="M215.8,530.03c2.27,5.77,.72,15.68-7.54,16.75-16.93,2.18-13.39-26,.94-23.64,3.97,.65,4.51,1.59,6.59,6.89m-17.9,1.97c.89,6.43,9.47,8.5,16.02,5.91,8.05-12.83-13.66-18.67-16.02-5.91"/>
    <path class="cls-9" d="M348.63,552.68c17.1-8.23,19.47,24.17,1.88,21.67-8.49-1.21-11.85-16.87-1.88-21.67m-4.71,11.82c8.92,9.79,24.92-2.97,13.19-11.82-9.7-1.61-13.29,3.18-13.19,11.82"/>
    <path class="cls-9" d="M245,558.59c20.06-10.85,23.35,22.67,6.6,21.67-8.79-.53-12.2-13.14-6.6-21.67m-1.88,8.87c3.14,5.78,13.39,7.86,17.9,1.97,2.54-15.62-17.93-13.97-17.9-1.97"/>
    <path class="cls-3" d="M289.13,365.43h2.01v2.01c-1.73,.39-2.4-.28-2.01-2.01"/>
    <path class="cls-3" d="M243.86,378.51v1.51c-.89-.11-2.52,.51-2.01-1.01,.9,.06,1.06-.62,2.01-.5"/>
    <path class="cls-9" d="M230.28,393.6c2.25-1.56,5.17,.51,8.05,0-.87,1.98-.93,4.77-1.51,7.04-3.25-1.28-4.35-4.71-6.54-7.04"/>
    <path class="cls-9" d="M240.34,393.6c2.65-.3,4.32,.37,6.54,.5-.25,1.76-.75,3.27-.5,5.53-2.16,.03-5.18-3.12-6.04-6.04"/>
    <path class="cls-9" d="M249.89,394.1h6.04c.17,2.35-1.74,2.62-1.01,5.53-2.57-.95-3.85-3.19-5.03-5.53"/>
    <path class="cls-3" d="M282.59,404.67c3.06-1.21,6.73,1.31,10.06,1.51-.38,2.14-2.79,2.24-4.53,3.02-2.34-1.01-4-2.71-5.53-4.53"/>
    <path class="cls-9" d="M272.53,404.67c2,1.69,3.62,3.75,6.04,5.03-1.36,1.16-4.85,.18-7.04,.5-.21-2.39,.24-4.12,1.01-5.53"/>
    <path class="cls-9" d="M262.47,405.67c2.44,1.08,2.89,4.16,6.04,4.53-1.99,.86-5.14,.56-7.54,1.01-.56-2.91,.93-3.76,1.51-5.53"/>
    <path class="cls-9" d="M253.41,407.18c1.51,1.5,3.99,2.05,4.53,4.53-2.38-.37-3.46,.57-5.53,.5-.33-2.35,.79-3.23,1.01-5.03"/>
    <path class="cls-9" d="M245.87,409.19c1.72,.8,3.35,1.68,4.02,3.52-2.13-.12-2.71,1.31-5.03,1.01,.04-1.8,.78-2.91,1.01-4.53"/>
    <path class="cls-9" d="M239.33,411.71c2.18-.17,1.24,2.79,3.52,2.52-1.09,1.09-2.94,1.42-4.53,2.01-.22-2.06,.47-3.22,1.01-4.53"/>
    <path class="cls-3" d="M318.81,425.29c.69,6.39-5.08,10.68-10.56,12.58,4.36-3.35,9.55-5.87,10.56-12.58"/>
    <path class="cls-3" d="M284.1,476.09c1.15,3.54,.02,9.37,1.01,13.08-1.68-3.49-1.61-8.57-1.01-13.08"/>
    <path class="cls-3" d="M331.88,380.02c9.99-2.2,.95-16.14,1.01-26.66,.06-11.6,3.73-18.35,7.54-26.16,1.09-1.36-2.25,6.2-3.02,8.55-1.57,4.83-3.7,12.29-3.02,20.62,.81,9.85,9.04,22.57-2.51,23.64"/>
    <path class="cls-3" d="M353.51,349.84c-3.26-4.46-6.29-9.13-12.07-11.07,4.02-.3,11.01,5.06,12.07,11.07"/>
    <path class="cls-3" d="M343.96,346.32c4.99,.3,11.17,14.83,5.03,22.13,2.39-6.8,1.31-18.56-5.03-22.13"/>
    <path class="cls-3" d="M299.19,357.89c.78,.81-3.9,.43-4.53,1.51,6.91,8.12-4.77,19.29-12.58,12.57,2.38-3.47,10.28,1.42,10.56-4.53,.11-2.25-.88-2.16-2.01-4.02,.06-1.29,.92-1.76,1.51-2.52-5,1.52-9.46,14.35-18.61,8.55,11.83,3.17,13.04-12.24,25.65-11.57"/>
    <path class="cls-9" d="M356.03,379.01c4.43-2.28,7.04-10.73,6.54-19.62,4.41,5.98,9.67,11.12,19.11,12.07-2.24,2.45-7.45,1.94-12.07,2.01-.19,1.05,.81,5.21,2.01,6.54-.47,17.91,4.07,30.81,15.09,37.22-5.88-.66-10.56-2.52-13.58-6.04,1.93,19.39-20.17,41.24-6.54,62.37-6.12-2.76-9.98-7.79-11.57-15.09-7.47,8.13-5.54,21.35,0,28.67,8.45,11.16,24.58,6.47,33.7-1.01-2.3,5.32-4.67,9.98-8.55,14.08-14.4,15.23-48.72,16.04-65.39,2.51-.42,10.59,10.86,14.47,20.62,11.57-8.97,18.12-53.01,14.25-59.86-4.53-14.71,14.96-60.77,14.59-61.87-12.58,2.9,.81,4.07,3.95,7.54,5.03,5.05,1.56,11.91,.13,16.1-2.52,9.12-5.76,7.46-21.47,14.59-28.67-6.13,1.91-10.01,6.09-14.08,10.06,2.83-15.62,12.92-23.97,22.63-32.7-6.14,3.74-18.29,4.81-25.15,1.01,13.34-1.91,22.83-7.69,33.2-12.58-2.61-1.41-6.21-1.84-7.54-4.53,10.47,2.68,20.31-7.71,29.17-9.05,8.15-1.23,13.08,2.79,17.6,7.54-5.91-13.15-35.56-9.59-53.32-7.04-9.75,1.4-15.26,5.16-19.11-3.02,9.32-9.12,28.34-8.55,44.77-10.56,.17-1.09,.39-4.9,2.01-6.04-18.44-5.2-33.63,5.71-48.29,9.05-16.41,3.75-29.21-8.95-26.16-26.66,1.11,5.94,4.34,9.75,7.04,14.08,12.21,11.67,32.51,1.99,47.79-.5,.08-1.61-4.2-3.17-4.53-6.04,2.73,.38,4.07-.62,6.54-.5-.03,2.15-.68,3.68-1.01,5.53,1.36,1.16,4.85,.18,7.04,.5,.27-1.63-3.63-3.4-4.53-5.53,.87-1.48,5.17,.47,6.04-1.01,.97,1.17-.18,4.5-.5,6.04,2.39,.29,4.64,.73,7.54,.5-.33-1.35-3.1-4.61-5.03-6.04,1.52-1.16,5.19-.18,7.54-.5-.07,2.45-1.64,3.39-1.51,6.04,4.02,2.02,10.05,2.02,14.08,4.02,.42-2.44-2.48-5.89-4.02-8.05-1.81,.37-.53,3.83-1.51,5.03-3.13-1.57-4.74-4.65-6.54-7.54-9.69-.04-24.59,1.1-37.73,.5-5.22-.24-14.39-.18-17.6-2.01-5.25-3-3.45-14.47,3.02-16.1-5.05,.65-6.99,4.41-9.56,7.54-1.98-3.38-2.29-8.44-2.01-14.08,13.75-6.27,34.06-3.79,50.3-5.53,6.64-.71,7.32-4.61,12.07-8.05,11.16-8.08,28.8-3.79,42.75-9.05-4.18-1.5-8.37,1.35-12.57,1.51,3.02-11.4,7.99-20.85,14.59-28.67,3.11,3.77,4.36,9.39,7.54,13.08-5.53,7.73-10.32,20.94-7.04,34.2-1.49-22.79,9.11-33.48,16.6-47.28,8.83,15.2,27.48,39.48,13.58,60.36m-82.49-9.56c9.16,5.8,13.62-7.03,18.61-8.55-.59,.75-1.45,1.23-1.51,2.52,1.13,1.86,2.12,1.77,2.01,4.02-.29,5.94-8.19,1.06-10.56,4.53,7.81,6.72,19.48-4.45,12.57-12.57,.63-1.08,5.3-.7,4.53-1.51-12.61-.67-13.83,14.74-25.65,11.57m60.86-13.08c-.68-8.33,1.45-15.79,3.02-20.62,.77-2.35,4.11-9.91,3.02-8.55-3.81,7.81-7.48,14.56-7.54,26.16-.06,10.52,8.99,24.46-1.01,26.66,11.56-1.07,3.32-13.79,2.51-23.64m7.04-17.6c5.78,1.93,8.81,6.61,12.07,11.06-1.06-6.01-8.05-11.36-12.07-11.06m7.54,29.68c6.14-7.31-.04-21.83-5.03-22.13,6.34,3.57,7.42,15.33,5.03,22.13m-57.85-1.01v-2.01h-2.01c-.39,1.73,.28,2.4,2.01,2.01m-4.02,8.55c-1.75-.18,3.66,1.44,6.54,1.01,3.08-.46,5.72-2.76,5.53-4.02-1.97,3.06-6.78,3.28-12.07,3.02m61.37,38.23c-.5-2.51-1.51-4.53-2.01-7.04-3.06-1.64-4.81-7.26-8.05-7.04,5,3.55,8.4,8.7,9.05,16.6,15.62-6.52,8.45-36.91-6.04-39.23,11.5,3.73,19.97,28.8,7.04,36.72m-106.64-35.21c-.51,1.51,1.12,.89,2.01,1.01v-1.51c-.95-.11-1.11,.57-2.01,.5m96.58,23.64c-.03-.53-.64-.4-.5,.5,8.43,14.25-2.21,31.19-12.57,36.22,12.95-3.6,22.35-23.03,13.08-36.72m-50.3,6.54c1.74-.78,4.15-.88,4.53-3.02-3.33-.2-7-2.71-10.06-1.51,1.53,1.82,3.19,3.51,5.53,4.53m35.71,30.18c2.11-4.92,.85-14.82-2.51-15.59,3.35,2.67,2.26,11.37,2.51,15.59m-15.59-1.51c5.49-1.89,11.25-6.18,10.56-12.58-1.01,6.7-6.2,9.22-10.56,12.58m-32.69,24.65c2.67-2.7,7.4-3.33,10.56-5.53-2.87,.65-5.54,1.5-8.05,2.51,2.4-4.33,10.26-8.48,12.07-10.06-6.25,2.64-13.1,7.35-14.59,13.08m47.28-5.03c-3.02,8.35-2.5,21.8,3.52,26.66-.72-3.08,1.35-6.01,0-8.05-.7,1.48-.89,3.47-1.51,5.03-4.01-5.18-3.04-17.61-2.01-23.64m-45.27,28.17c.97-4.73,5.62-8.46,6.04-12.07-1.78,2.58-3.68,5.04-5.53,7.55,.04-9.01,5.14-15.65,7.04-21.13-4.4,6.33-9.28,14.87-7.55,25.65m7.55,3.52c-.98-3.71,.14-9.53-1.01-13.08-.6,4.5-.68,9.59,1.01,13.08m46.78-3.52c-1.98-2.55-3.72-7.61-3.02-5.03,1.03,3.79,5.23,9.8,8.55,10.06-2.14-2.27-3.98-3.03-5.53-5.03"/>
    <path class="cls-3" d="M299.19,372.98c.19,1.27-2.45,3.56-5.53,4.02-2.88,.43-8.29-1.19-6.54-1.01,5.29,.26,10.1,.04,12.07-3.02"/>
    <path class="cls-3" d="M341.44,377.5c14.49,2.32,21.66,32.72,6.04,39.23-.65-7.9-4.05-13.05-9.05-16.6,3.24-.22,4.99,5.4,8.05,7.04,.5,2.51,1.51,4.53,2.01,7.04,12.93-7.92,4.46-32.99-7.04-36.72"/>
    <path class="cls-3" d="M325.34,439.37c10.37-5.03,21-21.97,12.58-36.22-.14-.9,.48-1.03,.5-.5,9.28,13.68-.13,33.12-13.08,36.72"/>
    <path class="cls-3" d="M321.32,423.78c3.37,.78,4.62,10.67,2.52,15.59-.25-4.22,.83-12.92-2.52-15.59"/>
    <path class="cls-3" d="M290.13,449.43c-1.82,1.58-9.67,5.73-12.07,10.06,2.5-1.02,5.18-1.86,8.05-2.51-3.17,2.2-7.9,2.83-10.56,5.53,1.49-5.73,8.34-10.44,14.59-13.08"/>
    <path class="cls-3" d="M324.84,481.12c.62-1.56,.81-3.55,1.51-5.03,1.35,2.04-.72,4.97,0,8.05-6.02-4.86-6.55-18.31-3.52-26.66-1.03,6.03-2,18.46,2.01,23.64"/>
    <path class="cls-3" d="M285.1,460c-1.9,5.48-7,12.12-7.04,21.13,1.85-2.51,3.75-4.97,5.53-7.55-.41,3.62-5.07,7.34-6.04,12.07-1.73-10.79,3.14-19.33,7.54-25.65"/>
    <path class="cls-3" d="M337.42,490.68c-3.32-.26-7.52-6.27-8.55-10.06-.7-2.58,1.04,2.48,3.02,5.03,1.55,2,3.39,2.76,5.53,5.03"/>
  </g>
  <g>
    <path class="cls-8" d="M397.55,302.87c.39,.45,.36,.31,0,0h0Z"/>
    <path class="cls-8" d="M435.8,268.41c-.27-.94-.72-1.77-1.33-2.45-.41-.88-1.05-1.69-1.88-2.29-.25-.18-.5-.36-.75-.54-.31-.22-.64-.38-.98-.5-.07-.09-.15-.19-.22-.28-.99-1.25-2.43-2.18-3.62-3.24-.88-.79-1.69-1.64-2.6-2.4-.34-.29-.68-.51-1.01-.7-1.06-1.88-3.75-2.79-5.72-2.25-1.97,.54-3.04,1.97-3.4,3.67-.18,.27-.35,.56-.5,.88-.33,.71-.68,1.38-1.02,2.06-.81,.5-1.51,1.14-2.01,2.07-.36,.67-.59,1.35-.73,2.03-.23,.23-.45,.48-.66,.77-.54,.18-1.07,.37-1.62,.65-2.33,1.16-3.02,4.32-1.93,6.54-.69,1.03-1.45,2.01-1.79,3.24-.59,2.15,.07,4.12,1.54,5.6-.05,.26-.1,.52-.12,.78-.49-.16-1.04-.25-1.64-.25-2.84,0-4.42,1.94-4.76,4.11-.81,.94-1.56,1.94-2.34,2.91-.12,.14-.24,.28-.36,.42-2.18-1.44-5.43-.17-6.65,1.92-1.5,2.56-.38,5.2,1.79,6.84,.24,.19,.48,.36,.73,.54,.07,.05,.45,.35,.63,.49,.4,.4,.75,.85,1.17,1.23,.45,.37,.92,.72,1.39,1.06,.04,.03,1.29,.96,.53,.36,.42,.35,.85,.67,1.29,.98,.13,.09,.23,.17,.32,.25-.13-.15-.32-.39-.55-.7,0,0,0,0,0,0,1.62,2.1,4.25,3.13,6.74,1.67,2.17-1.27,3.41-4.64,1.79-6.84-.23-.31-.46-.6-.7-.87-.14-.32-.29-.64-.49-.93,.62-.8,1.22-1.6,1.86-2.34,1.19-.65,1.94-1.77,2.26-3.02,.53,.19,1.13,.31,1.8,.31,.52,0,.99-.07,1.42-.19,.34,.07,.7,.1,1.08,.1,1.01,0,1.86-.26,2.55-.67,.64-.01,1.21-.12,1.72-.31,1.95-.46,3.09-1.99,3.44-3.7,1.21-.35,2.31-1.19,3.14-2.29,.87-1.15,1.5-2.4,2.07-3.7,.44-.1,.88-.18,1.31-.3,2.08-.55,3.49-2.45,3.63-4.51,3.05,.08,6.24-2.37,5.15-6.18Z"/>
  </g>
  <path class="cls-8" d="M210.21,290c-1.26-2.15-4.65-3.43-6.84-1.79-.3,.23-.61,.46-.91,.69-.33-.43-.7-.83-1.1-1.22-1.32-1.28-2.03-2.95-2.47-4.73-.11-.44-.28-.81-.48-1.17,.13-.27,.23-.55,.28-.86,.34-2.03-.32-4.29-1.59-5.92-.27-.55-.54-1.05-.63-1.21-1-1.64-2.11-3.22-2.97-4.95-1.02-2.03-2.53-3.83-4.48-4.51-.53-.88-1.31-1.62-2.08-2.31-.04-.04-.09-.07-.14-.11-.03-.1-.07-.21-.11-.31-.05-.59-.17-1.19-.3-1.76-.15-.63-.44-1.19-.82-1.68-.05-.63-.17-1.24-.35-1.82-.15-2.37-1.76-4.62-4.82-4.62-.79,0-1.49,.15-2.08,.42-.6,.23-1.09,.58-1.51,1-1.18,.48-2.15,1.45-2.69,2.61-.22,.18-.45,.36-.67,.56-1.05,1-1.63,2.37-2.7,3.36-1.01,.94-2.26,1.67-3.33,2.55-.25,.21-.52,.55-.77,.92-.33,.3-.61,.65-.84,1.04-2,1-3.01,3.72-2.44,5.78,.42,1.54,1.42,2.55,2.65,3.09,.65,.72,1.46,1.16,2.42,1.53,.08,.03,.16,.05,.24,.08,.17,.19,.36,.35,.56,.51,0,.01,.01,.02,.02,.03,.46,.96,1.23,1.77,2.3,2.22,1.27,2.26,2.78,4.4,4.35,6.49,1.08,1.45,2.68,2.12,4.25,2.18,.65,.82,1.32,1.63,1.99,2.46,1.21,1.51,3.05,1.8,4.7,1.31,.68,.38,1.4,.66,2.13,.8,.41,.13,.84,.24,1.29,.31,.35,.05,.71,.08,1.06,.08,.53,.97,1.13,1.88,1.83,2.6,.35,.39,.72,.75,1.12,1.09,.01,.01,.02,.02,.03,.04-.22,.69-.68,1.36-1.16,1.98-.62,.58-1.17,1.21-1.58,1.99-2.56,4.81,4.1,10.61,7.85,6.06,.25-.3,.49-.6,.74-.91-.17,.5,1.47-.99,1.35-.9,.86-.66,1.63-1.33,2.4-2.09,1.4-1.39,2.93-2.9,4.5-4.07,2.18-1.63,3.29-4.29,1.79-6.84Z"/>
  <path class="cls-11" d="M503.42,166.65c2.06-5.48-5.68-8.11-8.82-4.11-.68,.24-1.34,.61-1.91,1.12-.02,.02-.04,.04-.07,.06-.25,.18-.51,.35-.77,.51-.69,.44-1.38,.87-2.03,1.35-1.99,1.46-3.72,3.23-4.35,5.69-1.5,1.44-2.89,3-4.21,4.72-3.38,4.42-5.75,9.47-9.32,13.8-.81,.98-1.18,2.06-1.22,3.1-.31,.57-.59,1.17-.88,1.75-3.02,2.58-6.23,4.8-8.92,7.79-3.37,3.74-6.92,6.83-10.64,10.2-2.84,2.58-5.42,5.68-7.84,8.66-2.4,2.95-5.43,6.14-6.79,9.71-1.05,2.75,.39,4.78,2.48,5.62,.91,.82,2.13,1.33,3.46,1.46-1.45-.15,.86,.4,.38,.19,.77,.34,1.49,.77,2.21,1.19,.44,.26,1.31,.85,1.53,1.02,.17,.14,1.62,1.61,.95,.75,1.86,2.41,5.21,3.49,7.66,1.19,1.84,.13,3.68-.78,4.72-2.44,.34-.54,.7-1.08,1.06-1.61,.6-.51,1.03-1.16,1.31-1.87,1.02-1.44,2.04-2.87,2.95-4.38,.73-.74,1.18-1.7,1.35-2.73,.21-.74,.25-1.51,.14-2.24,1.93-2.23,3.84-4.32,4.69-7.35,.24-.85,.21-1.72,0-2.54,0,0,0-.01,0-.02,0,0,0,0,0,0,5.15-8.28,12.15-14.34,18.26-21.77,4.95-6.03,9.91-11.29,10.82-19.26,3.44-.73,4.47-4.7,3.09-7.38,.32-.59,.49-1.18,.53-1.74,.05-.14,.12-.28,.17-.42Z"/>
  <path class="cls-11" d="M165.79,229.42s-.02-.03-.03-.05c.11-.67,.06-1.35-.21-2.01-.5-1.22-.84-2.21-1.79-3.21-.41-.44-.86-.77-1.32-1.01-.6-1.14-1.44-2.16-2.4-3.01-1.61-1.45-3.49-2.71-5.52-3.56-.25-.4-.53-.78-.86-1.14-5.04-5.56-11.62-9.43-16.65-15.02-4.44-4.93-7.81-10.64-12.09-15.65-1.37-1.61-2.78-3.19-4.14-4.81-.71-.85-1.37-1.72-2-2.63,.82-3.12-1.81-7.42-6.13-6.69-.42,.07-.8,.17-1.15,.29,1.4-1.24,2.15-3.2,1.55-5.05-.55-1.7-1.17-3.06-2.29-4.46-1.7-2.13-5.31-1.77-7.07,0-.59,.59-.98,1.25-1.2,1.93-1,.23-1.97,.51-2.9,.94-2.41,.41-3.87,2.49-4.12,4.91,.14-1.12,.11-.9-.09,.66-.02,.74,.12,1.46,.27,2.17,.56,2.56,2.88,3.69,5.17,3.54,.35,3.31,1.72,6.1,3.84,8.49,1.33,6.69,7.16,11.21,11.59,16.18,6.11,6.87,14.13,12.47,18.52,20.67,3.65,6.82,7.31,30.93,20.48,21.11,1.09-.81,1.72-1.85,1.98-2.93,2.58,1.52,5.62-.29,6.67-2.95,2.17-1.26,3.53-3.91,1.89-6.71Zm-15.59,3.96s-.05,.03-.09,.05c-.24-.39-.43-.8-.64-1.19-.51-.93-.88-1.95-1.21-2.97,1.04,1.15,2.07,2.3,3.1,3.46-.38,.16-.77,.37-1.16,.66Z"/>
  <path class="cls-12" d="M419.11,234.41c-.2,.16-.41,.32-.61,.48-1.58-.37-3.25-.53-5.05-.58-4.59-.14-9.22-.63-13.81-.54-6.44,.13-6.45,10.13,0,10,3.54-.07,7.02,.42,10.55,.53,1.62,.05,5.58-.7,6.91,.34,3.2,2.5,7.91,1.02,8.47-2.68,.2-.16,.4-.32,.6-.48,4.95-4.15-2.17-11.19-7.07-7.07Z"/>
  <path class="cls-12" d="M455.48,276.28c-.03-3.5-.66-6.93-1.14-10.39,0-.63,0-1.26-.02-1.88v-1.9c0-.87-.19-1.61-.5-2.25-.06-.25-.11-.5-.18-.75-1.48-5.39-10.01-4.38-9.82,1.33,.04,1.17,.14,2.32,.26,3.48-1.2,.78-2.02,2.11-1.93,4.02,.16,3.25,.88,6.45,1.34,9.66,.42,2.91,1.75,5.71,1.66,8.67-.03,1.03,.19,1.89,.59,2.59-.01,1.25-.04,2.5-.09,3.74-.3,6.45,9.71,6.42,10,0,.25-5.45-.12-10.88-.17-16.33Z"/>
  <path class="cls-12" d="M200.14,233.36c-5.46,.06-10.88,.72-16.34,.82-.19-.08-.38-.17-.58-.22-.98-.27-2.04-.22-2.99,.11-.25-.04-.5-.08-.76-.11h0c-.26-.04-.51-.08-.76-.1-.07,0-.14-.02-.21-.03,.06,0,.11,.02,.17,.02-1.06-.1-2.05,.02-3.05,.61-1.12,.65-1.95,1.74-2.3,2.99-.67,2.42,.8,5.7,3.49,6.15,.18,.03,.35,.05,.53,.07,.35,.42,.77,.79,1.27,1.09,1.74,1.02,4.38,.91,5.86-.6,5.23-.14,10.43-.75,15.66-.8,6.44-.07,6.45-10.07,0-10Z"/>
  <path class="cls-12" d="M158.75,262.41c-.02-.17-.06-.37-.11-.63-.51-6.38-10.52-6.43-10,0,.13,1.61,.27,3.05,.64,4.33-2.74,5.49-2.36,14.09-2.67,19.89-.14,.46-.22,.97-.22,1.53v1c0,6.65,9.18,6.18,10,0,.53-3.99,.7-7.95,.93-11.96,.08-1.51,.4-2.97,.82-4.42,.51-1.76,1.71-2.54-.06-1.56,2.97-1.66,3.26-6.13,.67-8.19Z"/>
  <path class="cls-8" d="M472.79,655.92c-3.58-6.82-8.5-12.8-13.55-18.59-.88-1.34-1.7-2.72-2.45-4.16-.96-1.86-2.51-2.58-4.07-2.51-.92-.79-1.85-1.57-2.78-2.36,.76-1.45,.93-3.26,.1-4.88-2.82-5.47-7.7-9.07-11.78-13.51-4.86-5.28-8.79-12.07-12.4-18.23-3.39-5.77-6.43-12.64-10.99-17.57-.77-.84-2.43-1.74-2.87-2.82-.57-1.38-.41-3.14-.43-4.6-.06-3.52-.53-6.57-2.03-9.77-.4-.85-1.12-1.5-1.97-1.92-.12-.55-.31-1.09-.53-1.58-.34-.75-.66-1.5-1-2.25-1.46-3.22-7.22-3.33-8.63,0-1.7,4-6.14,6.75-8.62,10.31-.37,.54-.71,1.09-1.01,1.65-1.9,1.56-2.51,4.3-1.37,6.34,.22,1.95,1.09,3.83,2.79,5.5,2.13,2.1,4.8,1.7,6.58,.22,1.69,1.11,3.4,2.19,5.37,2.81,1,.31,2.17,.21,3.22-.21,.18,.21,.35,.43,.56,.64,4.85,4.91,7.84,10.8,11.38,16.72,3.8,6.37,7.91,12.43,12.17,18.5,1.03,1.47,2.23,2.8,3.5,4.07,.4,1.55,1.15,3.02,2.14,4.41,1.12,2.63,2.01,5.37,3.55,7.82,2.2,3.5,5.9,5.86,8.99,8.48,1.2,1.01,2.38,2.11,3.53,3.28,4.24,6.7,9.93,12.39,13.98,19.24,3.29,5.58,11.62,.65,8.63-5.05Z"/>
  <path class="cls-8" d="M200.67,555.11c-1.27-1.26-2.89-2.56-4.6-3.49-.3-.58-.69-1.14-1.18-1.72-1.12-1.33-3.26-1.73-4.86-1.29-2.32,.64-3.43,2.58-3.67,4.82-.22,2.01-2.37,4.75-3.44,6.98-1.1,2.29-.73,4.97,1.34,6.51-.82,.81-1.59,1.65-2.22,2.74-.7,1.23-.84,2.43-.58,3.5-.59,.52-1.09,1.2-1.42,2.07-2.91,7.49-8.43,14.29-13.45,20.48-2.44,3.02-5.04,5.88-7.34,9.01-2.69,3.65-4.82,7.61-7.76,11.11-3.07,3.66-6.23,7.24-9.44,10.77-1.73-.25-3.53,.41-4.63,2.43-2.45,4.5-6.62,7.57-9.84,11.49-1.56,1.89-2.51,4.1-3.5,6.25-.94,1.41-1.79,2.89-2.51,4.48,0,.01-.01,.02-.02,.03h0c-.18,.39-.35,.79-.51,1.19-.76,1.91-.35,3.42,.65,4.44,.87,1.49,2.48,2.52,4.3,2.52,2.5,0,4.59-1.91,4.93-4.33,.39-.78,.67-1.61,.97-2.43,3.16-5.47,8.91-9.98,13.06-14.44,6.09-6.54,12.23-13.17,17.55-20.36,2.36-3.19,4.22-6.72,6.69-9.83,2.41-3.03,5.01-5.88,7.36-8.97,5.07-6.69,10.06-13.31,13.13-21.19,.2-.5,.3-.98,.34-1.43,.7,.37,1.56,.56,2.59,.48,2.79-.23,5.13-1.6,7.46-3.07,2.42-1.53,5.27-2.39,6.97-4.85,4.17-6.02-2.62-10.21-6.37-13.91Z"/>
</svg>