<svg width="225" height="70" viewBox="0 0 225 70" fill="none" xmlns="http://www.w3.org/2000/svg">
<path d="M58 15.3643H63.7926V36.4933H74.2063V41.0556H58V15.3643Z" fill="#384050"/>
<path fill-rule="evenodd" clip-rule="evenodd" d="M86.8047 29.8088C81.084 29.8088 77.0738 31.4619 77.0738 35.8436C77.0738 39.7995 79.9413 41.4526 83.3335 41.4381C86.2729 41.4381 87.9187 40.2903 88.9895 38.7816V41.0483H94.0347V28.7982C94.0347 23.6946 90.779 21.825 86.201 21.825C81.623 21.825 78.1159 23.8029 77.7925 28.2568H82.6939C82.9095 26.6398 83.8366 25.6003 85.8776 25.6003C88.2349 25.6003 88.9177 26.8203 88.9177 29.0509V29.8088H86.8047ZM88.9177 32.8984V34.4793C88.9177 36.5655 87.1641 37.8216 84.8715 37.8216C82.9742 37.8216 82.1549 36.9192 82.1549 35.5549C82.1549 33.5481 83.9085 32.8984 86.9125 32.8984H88.9177Z" fill="#384050"/>
<path fill-rule="evenodd" clip-rule="evenodd" d="M115.387 15.3643H106.238V41.0556H111.995V31.1371H114.496L120.612 41.0556H126.763L120.001 30.1337C123.005 29.2313 125.261 27.1885 125.261 23.3048V23.1604C125.261 17.8403 121.431 15.3643 115.387 15.3643ZM119.605 23.4853C119.605 25.9685 118.139 27.1885 115.243 27.1885V27.1812H111.987V19.8182H115.243C118.031 19.8182 119.605 20.7205 119.605 23.3409V23.4853Z" fill="#384050"/>
<path fill-rule="evenodd" clip-rule="evenodd" d="M143.473 14H138.032L135.991 19.71H139.75L143.473 14ZM128.553 31.8951V31.6064C128.553 25.6798 132.736 21.8323 138.176 21.8323C143.006 21.8323 147.296 24.6692 147.296 31.3898V32.8263H133.807C133.95 35.952 135.632 37.7495 138.456 37.7495C140.857 37.7495 142.035 36.71 142.359 35.1291H147.26C146.649 39.1932 143.43 41.4527 138.32 41.4527C132.664 41.4527 128.553 37.8938 128.553 31.8951ZM142.251 29.6285C142.071 26.7915 140.641 25.4272 138.176 25.4272C135.848 25.4272 134.281 26.972 133.886 29.6285H142.251Z" fill="#384050"/>
<path fill-rule="evenodd" clip-rule="evenodd" d="M155.59 41.4528H150.437C150.933 45.3292 153.692 47.9929 159.737 48.0001C165.888 48.0001 169.575 45.1632 169.611 39.5903V22.2727H164.458V25.0736C163.387 23.1678 161.562 21.8396 158.522 21.8396C153.872 21.8396 150.293 25.6078 150.293 31.0001V31.2528C150.293 36.8184 153.908 40.2328 158.45 40.2328C161.203 40.2328 163.423 38.5797 164.458 36.7462V39.5831C164.458 42.5283 162.884 44.1814 159.737 44.1814C157.092 44.1814 155.913 43.1058 155.59 41.4528ZM164.602 30.9207V31.1734C164.602 34.3712 162.705 36.3131 159.988 36.3131C157.415 36.3131 155.59 34.3712 155.59 31.2455V30.9568C155.59 27.8672 157.2 25.781 160.096 25.781C162.92 25.781 164.602 27.7228 164.602 30.9207Z" fill="#384050"/>
<path fill-rule="evenodd" clip-rule="evenodd" d="M177.244 14.0361C175.598 14.0361 174.311 15.2561 174.311 16.8731C174.311 18.4901 175.598 19.71 177.244 19.71C178.925 19.71 180.212 18.4901 180.212 16.8731C180.212 15.2561 178.925 14.0361 177.244 14.0361ZM179.852 22.2654H174.699V41.0557H179.852V22.2654Z" fill="#384050"/>
<path fill-rule="evenodd" clip-rule="evenodd" d="M183.784 31.5703V31.859C183.784 37.7134 188.038 41.4527 193.622 41.4527C199.242 41.4527 203.497 37.6773 203.497 31.7507V31.462C203.497 25.6076 199.271 21.8323 193.658 21.8323C188.038 21.8323 183.784 25.6798 183.784 31.5703ZM198.236 31.5342V31.7868C198.236 35.3457 196.555 37.4968 193.658 37.504C190.726 37.504 189.08 35.3529 189.08 31.758V31.4692C189.08 27.8743 190.798 25.7881 193.658 25.7881C196.555 25.7881 198.236 27.9393 198.236 31.5342Z" fill="#384050"/>
<path d="M207.435 22.2654H212.624V25.2467C213.551 23.3771 215.592 21.8323 218.704 21.8323C222.391 21.8323 225 24.0628 225 29.0871V41.0556H219.811V29.845C219.811 27.2968 218.812 26.0696 216.52 26.0696C214.299 26.0696 212.617 27.434 212.617 30.1987V41.0484H207.428V22.2654H207.435Z" fill="#384050"/>
<path fill-rule="evenodd" clip-rule="evenodd" d="M63.8901 50.9617H62.0225L58 62.8378H59.3432L60.471 59.4207H65.298L66.4473 62.8378H67.8552L63.8901 50.9617ZM64.9173 58.2695H60.8589L62.8845 52.1566L64.9173 58.2695Z" fill="#384050"/>
<path d="M68.8896 59.6467V54.1531H70.2472V59.5811C70.2472 61.1112 70.8865 61.7887 72.2297 61.7887C73.4437 61.7887 74.5858 60.9727 74.5858 59.4135V54.1531H75.9434V62.8379H74.5858V61.4609C74.1907 62.2769 73.2425 62.9909 71.8706 62.9909C70.1682 62.9836 68.8896 62.0365 68.8896 59.6467Z" fill="#384050"/>
<path d="M77.2148 54.1531H78.6945L81.2302 61.439L83.7371 54.1531H85.145L82.0634 62.8379H80.3323L77.2148 54.1531Z" fill="#384050"/>
<path fill-rule="evenodd" clip-rule="evenodd" d="M85.54 58.4517V58.5829C85.54 61.2568 87.2568 62.9836 89.6847 62.9909C91.6169 62.9909 93.0392 62.0728 93.3337 60.3315H91.9761C91.7965 61.3442 91.0279 61.8397 89.6991 61.8397C87.9464 61.8397 87.0126 60.7395 86.9479 58.765H93.3984V58.3206C93.3984 55.2095 91.5307 54 89.5482 54C87.1922 54 85.54 55.8288 85.54 58.4517ZM89.5482 55.1512C90.9561 55.1512 91.8755 55.8652 92.0048 57.6575H86.991C87.2209 56.1129 88.1547 55.1512 89.5482 55.1512Z" fill="#384050"/>
<path d="M95.0792 54.153H96.4368V55.7122C96.9755 54.7359 97.7154 54.051 99.2526 54V55.2969C97.5358 55.377 96.4368 55.9308 96.4368 58.0728V62.8379H95.0792V54.153Z" fill="#384050"/>
<path fill-rule="evenodd" clip-rule="evenodd" d="M101.415 63.3333H100.021C100.251 64.7978 101.364 66.0072 103.907 66C106.299 66 107.987 64.7686 108.002 62.2477V54.1457H106.644V55.5446C106.148 54.6995 105.265 54 103.843 54C101.487 54 99.8488 55.9599 99.8488 58.3206V58.4371C99.8488 60.8269 101.501 62.5537 103.742 62.5537C104.985 62.5537 106.148 61.7522 106.637 60.9071V62.1675C106.637 64.0255 105.574 64.8415 103.886 64.8415C102.427 64.8415 101.609 64.3315 101.415 63.3333ZM106.68 58.2186V58.3351C106.68 60.2805 105.473 61.4098 103.886 61.4025C102.442 61.4025 101.249 60.2732 101.249 58.3789V58.2477C101.249 56.4189 102.262 55.1439 103.965 55.1439C105.631 55.1439 106.68 56.2732 106.68 58.2186Z" fill="#384050"/>
<path d="M110.171 54.153H111.529V55.53C111.924 54.714 112.872 54 114.28 54C116.047 54 117.289 54.9763 117.289 57.5045V62.8379H115.932V57.4098C115.932 55.8798 115.292 55.2022 113.92 55.2022C112.663 55.2022 111.529 56.0182 111.529 57.5774V62.8451H110.171V54.153Z" fill="#384050"/>
<path fill-rule="evenodd" clip-rule="evenodd" d="M118.891 58.4517V58.5829C118.891 61.2568 120.615 62.9836 123.036 62.9909C124.968 62.9909 126.39 62.0728 126.685 60.3315H125.327C125.148 61.3442 124.379 61.8397 123.05 61.8397C121.298 61.8397 120.364 60.7395 120.299 58.765H126.749V58.3206C126.749 55.2095 124.882 54 122.899 54C120.543 54 118.891 55.8288 118.891 58.4517ZM122.907 55.1512C124.314 55.1512 125.234 55.8652 125.363 57.6575H120.349C120.579 56.1129 121.513 55.1512 122.907 55.1512Z" fill="#384050"/>
<rect x="128.38" y="57.6211" width="3.50536" height="1.2969" fill="#384050"/>
<path fill-rule="evenodd" clip-rule="evenodd" d="M137.732 50.9617H134.22V62.8305H135.642V57.6647H137.445L140.929 62.8305H142.516L138.932 57.57C140.534 57.2567 141.827 56.295 141.827 54.3351V54.2695C141.827 51.8943 139.974 50.9617 137.732 50.9617ZM140.405 54.3351C140.405 55.7995 139.499 56.5281 137.833 56.5281H135.642V52.1274H137.833C139.42 52.1274 140.405 52.6593 140.405 54.2695V54.3351Z" fill="#384050"/>
<path d="M143.91 50H145.268V55.53C145.663 54.714 146.611 54 148.019 54C149.786 54 151.028 54.9763 151.028 57.5045V62.8378H149.671V57.4098C149.671 55.8798 149.031 55.2022 147.66 55.2022C146.402 55.2022 145.268 56.0182 145.268 57.5774V62.8378H143.91V50Z" fill="#384050"/>
<path fill-rule="evenodd" clip-rule="evenodd" d="M157.429 50.2695H156.2L154.433 52.6593H155.396L156.789 51.4134L158.183 52.6593H159.181L157.429 50.2695ZM152.594 58.5682V58.4371C152.594 55.8287 154.376 53.9999 156.804 53.9999C159.224 53.9999 161.013 55.8068 161.013 58.4152V58.5464C161.013 61.1693 159.231 62.9762 156.789 62.9762C154.347 62.9835 152.594 61.111 152.594 58.5682ZM159.605 58.5682V58.4516C159.605 56.4407 158.506 55.1438 156.804 55.1438C155.087 55.1438 154.002 56.4407 154.002 58.4298V58.5609C154.002 60.5354 155.065 61.8323 156.804 61.8323C158.52 61.8396 159.605 60.5281 159.605 58.5682Z" fill="#384050"/>
<path d="M162.672 54.153H164.03V55.53C164.425 54.714 165.373 54 166.781 54C168.548 54 169.791 54.9763 169.791 57.5045V62.8379H168.433V57.4098C168.433 55.8798 167.794 55.2022 166.422 55.2022C165.165 55.2022 164.03 56.0182 164.03 57.5774V62.8451H162.672V54.153Z" fill="#384050"/>
<path fill-rule="evenodd" clip-rule="evenodd" d="M171.392 58.4517V58.5829C171.392 61.2568 173.116 62.9836 175.537 62.9909C177.469 62.9909 178.892 62.0728 179.186 60.3315H177.829C177.649 61.3442 176.88 61.8397 175.552 61.8397C173.799 61.8397 172.865 60.7395 172.8 58.765H179.251V58.3206C179.251 55.2095 177.383 54 175.401 54C173.045 54 171.392 55.8288 171.392 58.4517ZM175.408 55.1512C176.816 55.1512 177.735 55.8652 177.864 57.6575H172.851C173.081 56.1129 174.014 55.1512 175.408 55.1512Z" fill="#384050"/>
<rect x="180.881" y="57.6211" width="3.50536" height="1.2969" fill="#384050"/>
<path fill-rule="evenodd" clip-rule="evenodd" d="M191.347 50.9617H189.48L185.457 62.8378H186.8L187.928 59.4207H192.755L193.904 62.8378H195.312L191.347 50.9617ZM192.374 58.2695H188.316L190.342 52.1566L192.374 58.2695Z" fill="#384050"/>
<rect x="196.749" y="50" width="1.37197" height="12.8378" fill="#384050"/>
<path fill-rule="evenodd" clip-rule="evenodd" d="M201.662 54.153H200.304V65.8543H201.662V61.4026C202.151 62.2696 203.149 62.9836 204.557 62.9836C206.913 62.9836 208.45 61.1621 208.45 58.5028V58.3716C208.45 55.6685 206.798 54.0073 204.557 54.0073C203.314 54.0073 202.151 54.7723 201.662 55.6175V54.153ZM204.413 55.1512C205.857 55.1512 207.049 56.2441 207.049 58.4372V58.5683C207.049 60.6812 206.13 61.8397 204.428 61.8397C202.761 61.8397 201.612 60.7905 201.612 58.5683V58.4372C201.612 56.215 202.826 55.1512 204.413 55.1512Z" fill="#384050"/>
<path fill-rule="evenodd" clip-rule="evenodd" d="M209.599 58.4517V58.5829C209.599 61.2568 211.316 62.9836 213.744 62.9909C215.676 62.9909 217.099 62.0728 217.393 60.3315H216.035C215.856 61.3442 215.087 61.8397 213.758 61.8397C212.006 61.8397 211.072 60.7395 211.007 58.765H217.458V58.3206C217.458 55.2095 215.59 54 213.608 54C211.252 54 209.599 55.8288 209.599 58.4517ZM213.608 55.1512C215.015 55.1512 215.935 55.8652 216.064 57.6575H211.05C211.28 56.1129 212.214 55.1512 213.608 55.1512Z" fill="#384050"/>
<path d="M218.506 60.1639H219.835C219.936 61.1912 220.475 61.8397 221.847 61.8397C223.14 61.8397 223.714 61.3879 223.714 60.4626C223.714 59.5519 223.046 59.2532 221.717 58.9982C219.491 58.5829 218.736 57.949 218.736 56.4408C218.736 54.8306 220.288 54 221.631 54C223.168 54 224.497 54.6339 224.727 56.5064H223.42C223.226 55.5592 222.701 55.1439 221.617 55.1439C220.633 55.1439 219.993 55.6393 219.993 56.3898C219.993 57.1694 220.417 57.4827 221.99 57.7668C223.757 58.102 225 58.4954 225 60.3388C225 61.9125 223.937 62.9763 221.854 62.9763C219.821 62.9836 218.593 61.9417 218.506 60.1639Z" fill="#384050"/>
<path d="M48 39C48 52.2586 37.2514 63 24 63C10.7414 63 0 52.2586 0 39C0 25.7414 10.7486 15 24 15C37.2586 15 48 25.7414 48 39Z" fill="#009CDD"/>
<path d="M27.7107 25.1121H25.4105L20 34.4068L22.2857 35.745L26.5606 28.4104L35.2405 43.2965L37.5335 41.9728L27.7107 25.1121Z" fill="white"/>
<rect x="14.7197" y="46.0308" width="24.2025" height="2.64738" fill="white"/>
<path d="M27.349 36.3887C25.9819 38.0089 23.9421 39.0433 21.6564 39.0433C19.5226 39.0433 17.5985 38.1464 16.2459 36.7069H16.217H13.8879L13.7938 36.8733L7.68173 47.3398L9.96745 48.678L14.4087 41.0758H14.3942L15.3418 39.4556C17.0705 40.8516 19.2694 41.6907 21.6636 41.6907C24.7233 41.6907 27.4647 40.3236 29.3165 38.1681L27.349 36.3887Z" fill="white"/>
</svg>
